<svg width="43" height="35" viewBox="0 0 43 35" fill="none" xmlns="http://www.w3.org/2000/svg">
<g clip-path="url(#clip0)">
<path d="M28.1628 1.61987V2.928H27.9955H16.2984H16.1767V1.61987H28.1628Z" fill="#9B51E0"/>
<path d="M42.416 19.25V33.974H1.75V19.25L7.27912 20.155V24.1403C7.27912 24.4597 7.5377 24.7107 7.84952 24.7107H10.2756C10.5875 24.7107 10.846 24.4597 10.846 24.1403V20.7331L21.9879 22.5583C22.0184 22.5659 22.0488 22.5659 22.0792 22.5659C22.1096 22.5659 22.1324 22.5659 22.1705 22.5583L33.3048 20.7331V24.1403C33.3048 24.4597 33.5633 24.7107 33.8752 24.7107H36.3013C36.6207 24.7107 36.8717 24.4597 36.8717 24.1403V20.155L42.416 19.25Z" fill="#9B51E0"/>
<path d="M41.7992 17.979V19.135L36.2625 20.0477V18.884L41.7992 17.979Z" fill="#111111"/>
<path d="M42.4609 19.0287L41.7992 19.1351V17.9791V6.10712H27.4631C27.7749 6.10712 28.0335 5.84853 28.0335 5.53671V4.96631H42.3696C42.6815 4.96631 42.94 5.21729 42.94 5.53671V18.4583C42.94 18.7473 42.7347 18.983 42.4609 19.0287Z" fill="#111111"/>
<path d="M36.2625 18.8843V20.0479L35.1217 20.2304V19.0744L36.2625 18.8843Z" fill="#111111"/>
<path d="M35.1217 19.0742V20.2302L33.844 20.4432V19.2872L35.1217 19.0742Z" fill="#111111"/>
<path d="M33.844 19.2874V20.4434L32.7032 20.6259V19.4699L33.844 19.2874Z" fill="#111111"/>
<path d="M32.7032 19.4698V16.4657C32.7032 16.1538 32.9618 15.8953 33.2736 15.8953H35.6997C36.0191 15.8953 36.2701 16.1538 36.2701 16.4657V18.8918L35.1293 19.0819V17.0361H33.844V19.2873L32.7032 19.4698Z" fill="#111111"/>
<path d="M32.7032 24.0331V20.6259L33.844 20.4434V23.4627H35.1293V20.2304L36.2701 20.0403V24.0255C36.2701 24.3449 36.0191 24.5959 35.6997 24.5959H33.2736C32.9542 24.6035 32.7032 24.3525 32.7032 24.0331Z" fill="#111111"/>
<path d="M28.0335 4.96631V5.53671C28.0335 5.84853 27.7749 6.10712 27.463 6.10712C27.1512 6.10712 26.8926 5.84853 26.8926 5.53671V4.96631H28.0335Z" fill="#111111"/>
<path d="M28.0335 3.58984H26.8926V4.97402H28.0335V3.58984Z" fill="#111111"/>
<path d="M28.0335 3.01938V3.58978H26.8926V3.01938C26.8926 2.70756 27.1512 2.44897 27.463 2.44897C27.7749 2.44897 28.0335 2.70756 28.0335 3.01938Z" fill="#111111"/>
<path d="M15.766 2.44897H27.4631C27.1513 2.44897 26.8927 2.70756 26.8927 3.01938V3.58978H16.3364V3.01938C16.3364 2.70756 16.0778 2.44897 15.766 2.44897Z" fill="#111111"/>
<path d="M27.4631 6.10712H15.766C16.0778 6.10712 16.3364 5.84853 16.3364 5.53671V4.96631H26.8927V5.53671C26.8927 5.85614 27.1513 6.10712 27.4631 6.10712Z" fill="#111111"/>
<path d="M21.47 22.4586C21.432 22.4586 21.4092 22.4586 21.3788 22.451L10.2369 20.6257V19.4697L21.47 21.3102L32.7032 19.4697V20.6257L21.5689 22.451C21.5309 22.4586 21.5005 22.4586 21.47 22.4586Z" fill="#111111"/>
<path d="M16.3364 4.96631V5.53671C16.3364 5.84853 16.0778 6.10712 15.766 6.10712C15.4541 6.10712 15.1956 5.84853 15.1956 5.53671V4.96631H16.3364Z" fill="#111111"/>
<path d="M16.3364 3.58984H15.1956V4.97402H16.3364V3.58984Z" fill="#111111"/>
<path d="M16.3364 3.01938V3.58978H15.1956V3.01938C15.1956 2.70756 15.4541 2.44897 15.766 2.44897C16.0778 2.44897 16.3364 2.70756 16.3364 3.01938Z" fill="#111111"/>
<path d="M28.7712 0.570404V3.01934C28.7712 3.33116 28.5202 3.58974 28.2008 3.58974H28.0335V3.01934C28.0335 2.70752 27.7749 2.44894 27.4631 2.44894H27.6304V1.14081H15.6443V2.44894H15.766C15.4542 2.44894 15.1956 2.70752 15.1956 3.01934V3.58974H15.0739C14.7621 3.58974 14.5035 3.33116 14.5035 3.01934V0.570404C14.5035 0.250978 14.7621 0 15.0739 0H28.2008C28.5202 0 28.7712 0.250978 28.7712 0.570404Z" fill="#111111"/>
<path d="M10.2369 19.4697V20.6257L9.09607 20.4356V19.2795L10.2369 19.4697Z" fill="#111111"/>
<path d="M9.09604 19.2796V20.4356L7.81073 20.2302V19.0742L9.09604 19.2796Z" fill="#111111"/>
<path d="M7.81073 19.0744V20.2304L6.66992 20.0479V18.8843L7.81073 19.0744Z" fill="#111111"/>
<path d="M6.66992 16.4581C6.66992 16.1463 6.92851 15.8877 7.24033 15.8877H9.66645C9.97827 15.8877 10.2368 16.1463 10.2368 16.4581V19.4622L9.09604 19.2721V17.0209H7.81073V19.0667L6.66992 18.8766V16.4581Z" fill="#111111"/>
<path d="M6.66992 24.0331V20.0479L7.81073 20.2304V23.4627H9.09604V20.4357L10.2368 20.6259V24.0331C10.2368 24.3525 9.97827 24.6035 9.66645 24.6035H7.24033C6.92851 24.6035 6.66992 24.3525 6.66992 24.0331Z" fill="#111111"/>
<path d="M6.66993 18.884V20.0477L1.14081 19.135V17.979L6.66993 18.884Z" fill="#111111"/>
<path d="M0 18.4659V5.53671C0 5.21729 0.258583 4.96631 0.570404 4.96631H15.1956V5.53671C15.1956 5.84853 15.4542 6.10712 15.766 6.10712H1.14081V17.9715V19.1275L0.47914 19.0211C0.19774 18.983 0 18.7473 0 18.4659Z" fill="#111111"/>
<path d="M41.7992 33.8591V19.1351L42.4609 19.0286C42.7347 18.983 42.94 18.7396 42.94 18.4658V34.4295C42.94 34.7414 42.6814 34.9999 42.3696 34.9999H0.570404C0.258583 34.9999 0 34.7414 0 34.4295V18.4658C0 18.7472 0.19774 18.983 0.479139 19.0286L1.14081 19.1351V33.8591H41.7992Z" fill="#111111"/>
</g>
<defs>
<clipPath id="clip0">
<rect width="42.94" height="35" fill="white"/>
</clipPath>
</defs>
</svg>
