<svg width="276" height="150" viewBox="0 0 276 150" fill="none" xmlns="http://www.w3.org/2000/svg">
<g opacity="0.85">
<path d="M160.531 104.98C160.183 105.029 151.883 106.189 147.986 110C146.062 111.875 144.846 113.891 144.462 115.827C144.187 117.22 144.352 118.533 144.908 119.669L140.986 123.108V101.279C148.957 100.448 155.193 93.6927 155.193 85.5022C155.193 76.7559 148.077 69.6404 139.331 69.6404C130.585 69.6404 123.469 76.7559 123.469 85.5022C123.469 93.6866 129.705 100.448 137.676 101.279V118.386L134.231 115.369C134.958 114.031 135.178 112.45 134.848 110.77C134.402 108.522 132.979 106.177 130.731 103.984C126.151 99.5134 116.348 98.1391 115.932 98.0842C115.413 98.0109 114.894 98.1941 114.528 98.5667C114.161 98.9392 113.996 99.4645 114.082 99.9837C114.149 100.399 115.767 110.165 120.348 114.63C123.304 117.513 126.163 118.673 128.563 118.673C129.846 118.673 130.988 118.337 131.953 117.763L137.682 122.79V148.345C137.682 149.255 138.421 150 139.337 150C140.247 150 140.992 149.261 140.992 148.345V127.517L147.186 122.082C148.022 122.552 148.969 122.796 149.989 122.796C150.368 122.796 150.759 122.759 151.156 122.692C153.104 122.356 155.144 121.19 157.068 119.315C160.971 115.51 162.339 107.246 162.4 106.898C162.486 106.378 162.315 105.853 161.954 105.481C161.569 105.09 161.05 104.907 160.531 104.98ZM122.651 112.248C120.061 109.719 118.534 104.723 117.826 101.773C120.794 102.408 125.827 103.807 128.417 106.336C130.646 108.51 131.379 110.294 131.599 111.399C131.77 112.26 131.776 113.494 130.829 114.459C129.082 116.255 125.87 115.387 122.651 112.248ZM126.774 85.4961C126.774 78.576 132.405 72.9447 139.325 72.9447C146.245 72.9447 151.876 78.576 151.876 85.4961C151.876 92.3123 146.416 97.8582 139.649 98.0353C139.545 98.017 139.435 98.0048 139.325 98.0048C139.215 98.0048 139.105 98.017 139.001 98.0353C132.228 97.8582 126.774 92.3123 126.774 85.4961ZM154.747 116.933C152.927 118.71 151.479 119.266 150.582 119.419C149.623 119.583 148.841 119.37 148.273 118.789C147.705 118.203 147.509 117.421 147.699 116.462C147.876 115.571 148.468 114.135 150.288 112.364C152.188 110.507 155.932 109.316 158.613 108.699C157.935 111.362 156.653 115.076 154.747 116.933Z" fill="#245492"/>
<path d="M139.325 95.6352C140.125 95.6352 140.773 94.9877 140.773 94.1876V92.7767C142.837 92.2026 144.346 90.4253 144.346 88.3303C144.346 86.1132 142.654 84.4458 139.698 83.7312C139.698 83.7312 139.698 83.7312 139.692 83.7312C138.036 83.2975 137.194 82.6867 137.194 81.9294C137.194 80.9644 138.146 80.1765 139.325 80.1765C140.504 80.1765 141.457 80.9644 141.457 81.9294C141.457 82.7295 142.104 83.3769 142.904 83.3769C143.704 83.3769 144.352 82.7295 144.352 81.9294C144.352 79.8344 142.843 78.0571 140.779 77.4829V76.072C140.779 75.2719 140.131 74.6245 139.331 74.6245C138.531 74.6245 137.884 75.2719 137.884 76.072V77.4829C135.819 78.0571 134.311 79.8344 134.311 81.9294C134.311 83.4624 135.111 85.4963 138.904 86.5102C138.91 86.5102 138.916 86.5163 138.916 86.5163C138.922 86.5163 138.922 86.5163 138.928 86.5163C138.94 86.5224 138.953 86.5224 138.965 86.5285C138.971 86.5285 138.977 86.5285 138.983 86.5285C139.936 86.7545 141.463 87.2737 141.463 88.3303C141.463 89.2953 140.51 90.0832 139.331 90.0832C138.152 90.0832 137.2 89.2953 137.2 88.3303C137.2 87.5302 136.552 86.8828 135.752 86.8828C134.952 86.8828 134.305 87.5302 134.305 88.3303C134.305 90.4253 135.813 92.2026 137.878 92.7767V94.1876C137.878 94.9877 138.525 95.6352 139.325 95.6352Z" fill="#245492"/>
<path d="M41.1553 107.142C40.4407 106.434 39.1214 106.586 38.59 107.441C38.3335 107.851 32.3479 117.513 33.1725 124.61C33.9848 131.622 37.6372 134.902 41.3813 135.335V147.978C41.3813 148.888 42.1203 149.634 43.0365 149.634C43.9465 149.634 44.6917 148.895 44.6917 147.978V134.987C48.2952 133.76 51.1781 129.716 50.3597 122.619C49.5351 115.522 41.4973 107.478 41.1553 107.142ZM42.7433 132.056C39.5184 132.428 37.0509 129.356 36.4584 124.225C35.9637 119.938 38.7244 114.056 40.3185 111.082C42.841 113.946 46.6034 118.979 47.0737 122.998C47.6661 128.128 45.9682 131.683 42.7433 132.056Z" fill="#245492"/>
<path d="M96.1005 118.246C92.4481 118.246 89.4798 121.214 89.4798 124.867C89.4798 126.143 89.8523 127.334 90.4814 128.348L87.2504 131.182V113.665C91.5136 112.603 95.05 108.107 93.7857 100.033C92.6069 92.5202 83.5369 84.342 83.1521 83.9938C82.7796 83.664 82.2848 83.5113 81.7962 83.5907C81.3076 83.6701 80.88 83.9572 80.6296 84.3847C80.367 84.8306 74.2348 95.397 75.4136 102.903C76.5008 109.848 80.1593 113.177 83.9522 113.794V128.342L81.9245 126.559C82.975 124.268 82.4681 120.976 79.0233 117.617C75.4075 114.093 67.7423 113.012 67.4186 112.969C66.9055 112.896 66.3803 113.079 66.0138 113.451C65.6473 113.824 65.4824 114.349 65.5679 114.868C65.6229 115.192 66.8872 122.827 70.503 126.357C72.8606 128.66 75.151 129.582 77.0932 129.582C78.0461 129.582 78.9072 129.356 79.6585 128.959L83.9645 132.734V148.327C83.9645 149.237 84.7035 149.982 85.6197 149.982C86.5297 149.982 87.2749 149.243 87.2749 148.327V135.555L92.9001 130.62C93.8529 131.158 94.9523 131.463 96.125 131.463C99.7774 131.463 102.746 128.495 102.746 124.842C102.746 121.19 99.753 118.246 96.1005 118.246ZM72.7995 124.006C71.1199 122.369 69.9716 119.132 69.3364 116.713C71.7612 117.287 75.0288 118.356 76.7085 119.993C78.9866 122.21 79.7318 124.513 78.5591 125.71C77.3925 126.907 75.0777 126.223 72.7995 124.006ZM78.6751 102.403C77.9422 97.7302 80.8678 91.1277 82.4803 87.9394C84.9906 90.4864 89.7913 95.8734 90.5242 100.546C91.3854 106.061 89.6202 109.988 86.0228 110.55C82.4192 111.112 79.5363 107.918 78.6751 102.403ZM96.1005 128.183C94.2743 128.183 92.784 126.699 92.784 124.867C92.784 123.041 94.2743 121.55 96.1005 121.55C97.9268 121.55 99.4171 123.035 99.4171 124.867C99.4171 126.693 97.9329 128.183 96.1005 128.183Z" fill="#245492"/>
<path d="M232.285 0.916239L221.144 0.336003C220.216 0.281033 219.453 0.989532 219.41 1.89959C219.361 2.80964 220.063 3.59143 220.973 3.63419L227.558 3.97622C221.774 7.92183 202.675 20.2778 172.863 33.0002C139.685 47.158 86.0838 64.6628 19.1613 67.6556C18.2512 67.6983 17.5427 68.4679 17.5855 69.378C17.6221 70.2636 18.355 70.9599 19.2345 70.9599C19.259 70.9599 19.2834 70.9599 19.3078 70.9599C86.774 67.9427 140.815 50.2791 174.268 35.993C204.873 22.9225 224.345 10.1939 229.805 6.44375L228.694 12.4843C228.529 13.3822 229.121 14.2433 230.019 14.4083C230.123 14.4266 230.221 14.4388 230.318 14.4388C231.1 14.4388 231.796 13.883 231.943 13.0829L233.824 2.86461C233.91 2.39431 233.794 1.9118 233.494 1.53923C233.195 1.16666 232.755 0.94067 232.285 0.916239Z" fill="#245492"/>
<path d="M11.4044 105.285C11.0929 104.9 10.6226 104.68 10.1218 104.68C9.62707 104.68 9.15677 104.9 8.83917 105.285L4.60039 110.471C4.02015 111.179 4.13009 112.217 4.83248 112.798C5.54098 113.378 6.5793 113.268 7.15954 112.566L8.46659 110.971V125.056C8.46659 125.966 9.20563 126.711 10.1218 126.711C11.038 126.711 11.777 125.972 11.777 125.056V110.971L13.0841 112.566C13.4139 112.963 13.8842 113.17 14.3667 113.17C14.7331 113.17 15.1057 113.048 15.4111 112.798C16.1196 112.217 16.2234 111.179 15.6432 110.471L11.4044 105.285Z" fill="#245492"/>
<path d="M275.571 74.2765L271.332 69.091C271.02 68.7062 270.55 68.4863 270.049 68.4863C269.554 68.4863 269.084 68.7062 268.767 69.091L264.528 74.2765C263.948 74.985 264.057 76.0233 264.76 76.6035C265.462 77.1777 266.507 77.0738 267.087 76.3714L268.394 74.7773V92.6791C268.394 93.5892 269.133 94.3343 270.049 94.3343C270.959 94.3343 271.704 93.5953 271.704 92.6791V74.7773L273.011 76.3714C273.341 76.7684 273.812 76.9761 274.294 76.9761C274.661 76.9761 275.033 76.8539 275.338 76.6035C276.047 76.0233 276.151 74.985 275.571 74.2765Z" fill="#245492"/>
<path d="M257.461 48.8925C257.15 48.5077 256.679 48.2878 256.179 48.2878C255.678 48.2878 255.214 48.5077 254.896 48.8925L250.657 54.078C250.077 54.7865 250.187 55.8248 250.889 56.405C251.592 56.9792 252.636 56.8814 253.216 56.1729L254.523 54.5788V83.8288C254.523 84.7389 255.262 85.484 256.179 85.484C257.089 85.484 257.834 84.745 257.834 83.8288V54.5727L259.141 56.1668C259.471 56.5638 259.941 56.7715 260.423 56.7715C260.79 56.7715 261.162 56.6493 261.468 56.3989C262.176 55.8187 262.28 54.7804 261.7 54.0719L257.461 48.8925Z" fill="#245492"/>
<path d="M207.775 111.118L217.669 102.439C219.184 103.441 220.998 104.027 222.94 104.027C228.236 104.027 232.548 99.715 232.548 94.4196C232.548 89.1242 228.236 84.8121 222.94 84.8121C217.645 84.8121 213.333 89.1242 213.333 94.4196C213.333 96.5757 214.053 98.5546 215.257 100.161L207.775 106.721V82.1186C217.113 81.2819 224.461 73.4151 224.461 63.8565C224.461 53.742 216.234 45.5149 206.119 45.5149C196.005 45.5149 187.778 53.742 187.778 63.8565C187.778 73.409 195.126 81.2819 204.464 82.1186V102.201L198.979 97.388C199.951 95.7633 200.262 93.8027 199.847 91.7078C199.315 89.0143 197.593 86.1864 194.881 83.5417C189.323 78.118 177.358 76.4384 176.857 76.3712C176.338 76.2979 175.819 76.4812 175.452 76.8537C175.086 77.2263 174.921 77.7516 175.007 78.2707C175.086 78.7777 177.065 90.6939 182.623 96.1115C185.341 98.7622 188.205 100.405 190.911 100.869C191.449 100.961 191.974 101.01 192.487 101.01C194.044 101.01 195.48 100.588 196.701 99.7822L204.47 106.592V126.931L200.684 123.609C201.459 122.21 201.697 120.549 201.349 118.783C200.885 116.444 199.401 114.001 197.056 111.711C192.273 107.044 182.024 105.609 181.591 105.548C181.065 105.475 180.552 105.658 180.186 106.03C179.819 106.403 179.655 106.928 179.74 107.447C179.807 107.881 181.505 118.087 186.288 122.753C188.633 125.038 191.113 126.461 193.464 126.87C193.934 126.949 194.399 126.992 194.851 126.992C196.158 126.992 197.361 126.65 198.405 126.003L204.476 131.323V148.32C204.476 149.231 205.215 149.976 206.132 149.976C207.048 149.976 207.787 149.237 207.787 148.32V136.276L214.353 130.523C215.226 131.023 216.228 131.286 217.297 131.286C217.694 131.286 218.097 131.249 218.506 131.182C220.528 130.834 222.659 129.619 224.663 127.664C228.73 123.694 230.166 115.058 230.227 114.691C230.312 114.172 230.141 113.647 229.781 113.274C229.414 112.902 228.895 112.718 228.376 112.792C228.01 112.841 219.343 114.056 215.269 118.026C211.348 121.85 210.829 125.581 212.087 128.116L207.793 131.885V111.118H207.775ZM222.94 88.1164C226.416 88.1164 229.243 90.9443 229.243 94.4196C229.243 97.8949 226.416 100.723 222.94 100.723C219.465 100.723 216.637 97.8949 216.637 94.4196C216.637 90.9443 219.465 88.1164 222.94 88.1164ZM191.467 97.6201C189.421 97.2658 187.161 95.9282 184.926 93.7539C181.487 90.4007 179.557 83.6333 178.738 80.0664C182.324 80.7932 189.134 82.5584 192.579 85.9115C194.814 88.092 196.207 90.3213 196.61 92.3552C196.94 94.0104 196.573 95.4335 195.559 96.4718C194.539 97.504 193.122 97.9072 191.467 97.6201ZM194.02 123.615C192.841 123.413 190.942 122.686 188.59 120.39C185.823 117.69 184.217 112.334 183.484 109.249C186.587 109.903 191.98 111.381 194.747 114.074C197.098 116.371 197.874 118.252 198.106 119.425C198.289 120.347 198.295 121.666 197.282 122.705C196.262 123.749 194.942 123.78 194.02 123.615ZM217.553 120.402C219.587 118.417 223.612 117.153 226.44 116.517C225.731 119.333 224.363 123.321 222.336 125.307C220.412 127.182 218.879 127.768 217.926 127.933C216.894 128.11 216.051 127.884 215.434 127.249C214.011 125.783 214.86 123.028 217.553 120.402ZM191.082 63.8565C191.082 55.5682 197.825 48.8192 206.119 48.8192C214.408 48.8192 221.157 55.5621 221.157 63.8565C221.157 72.1447 214.414 78.8937 206.119 78.8937C197.831 78.8876 191.082 72.1447 191.082 63.8565Z" fill="#245492"/>
<path d="M207.567 73.5128V72.2118C209.979 71.6194 211.769 69.5916 211.769 67.1852C211.769 64.6993 209.839 62.8242 206.474 62.0241C203.371 61.1996 203.371 60.0452 203.371 59.6665C203.371 58.39 204.605 57.3517 206.125 57.3517C207.646 57.3517 208.88 58.39 208.88 59.6665C208.88 60.4666 209.527 61.1141 210.328 61.1141C211.128 61.1141 211.775 60.4666 211.775 59.6665C211.775 57.2601 209.992 55.2323 207.573 54.6398V53.3389C207.573 52.5388 206.926 51.8914 206.125 51.8914C205.325 51.8914 204.678 52.5388 204.678 53.3389V54.6398C202.265 55.2323 200.482 57.2601 200.482 59.6665C200.482 61.3767 201.392 63.6488 205.692 64.8031H205.698C205.698 64.8031 205.698 64.8031 205.704 64.8031C205.722 64.8092 205.741 64.8154 205.759 64.8215C205.771 64.8215 205.777 64.8215 205.79 64.8276C206.987 65.1085 208.88 65.7804 208.88 67.1852C208.88 68.4617 207.646 69.5 206.125 69.5C204.605 69.5 203.371 68.4617 203.371 67.1852C203.371 66.385 202.723 65.7376 201.923 65.7376C201.123 65.7376 200.476 66.385 200.476 67.1852C200.476 69.5916 202.259 71.6194 204.672 72.2118V73.5128C204.672 74.3129 205.319 74.9603 206.119 74.9603C206.919 74.9603 207.567 74.3068 207.567 73.5128Z" fill="#245492"/>
<path d="M219.331 41.2456C219.96 41.6243 220.778 41.4227 221.157 40.7937L222.464 38.6315C222.842 38.0024 222.641 37.184 222.012 36.8053C221.383 36.4266 220.564 36.6282 220.186 37.2573L218.879 39.4194C218.5 40.0424 218.701 40.8669 219.331 41.2456Z" fill="#245492"/>
<path d="M224.266 49.2649C224.571 49.4482 224.925 49.5031 225.273 49.4176L227.723 48.813C228.065 48.7275 228.358 48.5137 228.541 48.2083C228.724 47.9029 228.779 47.5487 228.694 47.2005C228.523 46.5103 227.771 46.0584 227.087 46.2294L224.638 46.8341C223.93 47.0112 223.49 47.7319 223.667 48.4465C223.746 48.7885 223.96 49.0817 224.266 49.2649Z" fill="#245492"/>
<path d="M209.949 40.6288C210.242 40.8059 210.596 40.8731 210.957 40.7815C211.671 40.6044 212.105 39.8837 211.928 39.1691L211.323 36.7198C211.146 36.0113 210.425 35.5716 209.711 35.7487C208.996 35.9258 208.563 36.6466 208.74 37.3612L209.344 39.8104C209.43 40.1646 209.656 40.4517 209.949 40.6288Z" fill="#245492"/>
<path d="M10.1767 98.8354C10.8242 98.8721 11.38 98.3773 11.4166 97.7299L11.5449 95.5067C11.5815 94.8593 11.0868 94.3035 10.4394 94.2668C9.79196 94.2302 9.23616 94.7249 9.19951 95.3723L9.07125 97.5955C9.0346 98.2429 9.52933 98.7988 10.1767 98.8354Z" fill="#245492"/>
<path d="M18.294 99.538L16.6266 101.022C16.1441 101.45 16.1013 102.195 16.5288 102.684C16.7365 102.916 17.0236 103.056 17.3351 103.074C17.6466 103.093 17.952 102.989 18.184 102.781L19.8515 101.297C20.0836 101.089 20.224 100.802 20.2424 100.491C20.2607 100.179 20.1568 99.874 19.9492 99.6419C19.5339 99.1716 18.7582 99.1227 18.294 99.538Z" fill="#245492"/>
<path d="M2.05347 98.5975C1.62593 98.115 0.880783 98.0722 0.392164 98.4998C-0.0903485 98.9334 -0.133103 99.6725 0.29444 100.161L1.77862 101.828C1.99239 102.073 2.28557 102.201 2.58485 102.219C2.88412 102.238 3.18951 102.14 3.43382 101.926C3.91633 101.493 3.95909 100.754 3.53155 100.265L2.05347 98.5975Z" fill="#245492"/>
<path d="M121.509 21.4565C119.408 21.4565 117.698 19.9968 117.698 18.2011C117.698 17.3521 117.007 16.6558 116.152 16.6558C115.297 16.6558 114.607 17.346 114.607 18.2011C114.607 21.2061 116.897 23.7286 119.964 24.376V25.4082C119.964 26.2572 120.654 26.9535 121.509 26.9535C122.364 26.9535 123.054 26.2633 123.054 25.4082V24.376C126.114 23.7286 128.411 21.2122 128.411 18.2011C128.411 16.4237 127.549 13.266 121.906 11.9101C117.698 10.8046 117.698 9.14941 117.698 8.60582C117.698 6.81014 119.408 5.35039 121.509 5.35039C123.61 5.35039 125.32 6.81014 125.32 8.60582C125.32 9.45479 126.01 10.1511 126.865 10.1511C127.72 10.1511 128.411 9.4609 128.411 8.60582C128.411 5.6008 126.12 3.0783 123.054 2.43088V1.54526C123.054 0.696283 122.364 0 121.509 0C120.654 0 119.964 0.690175 119.964 1.54526V2.4431C116.904 3.09052 114.607 5.60691 114.607 8.61803C114.607 10.6886 115.725 13.4432 120.996 14.8724C121.008 14.8724 121.014 14.8785 121.026 14.8846C121.032 14.8846 121.039 14.8907 121.051 14.8907C121.075 14.8968 121.093 14.9029 121.118 14.909C121.13 14.909 121.136 14.909 121.148 14.9151C122.761 15.2999 125.32 16.2161 125.32 18.2133C125.32 19.9968 123.61 21.4565 121.509 21.4565Z" fill="#245492"/>
<path d="M140.345 23.4965C138.867 23.4965 137.658 22.4887 137.658 21.255C137.658 20.406 136.968 19.7097 136.112 19.7097C135.263 19.7097 134.567 20.3999 134.567 21.255C134.567 23.6981 136.363 25.7625 138.794 26.3855V27.3261C138.794 28.1751 139.484 28.8713 140.339 28.8713C141.194 28.8713 141.884 28.1812 141.884 27.3261V26.3855C144.321 25.7625 146.111 23.6981 146.111 21.255C146.111 18.7081 144.144 16.7902 140.712 15.9718C138.684 15.4343 137.652 14.6647 137.652 13.6814C137.652 12.4415 138.855 11.4398 140.339 11.4398C141.823 11.4398 143.026 12.4476 143.026 13.6814C143.026 14.5365 143.717 15.2266 144.572 15.2266C145.427 15.2266 146.117 14.5365 146.117 13.6814C146.117 11.2383 144.321 9.17386 141.89 8.55087V7.85459C141.89 7.00561 141.2 6.30933 140.345 6.30933C139.49 6.30933 138.8 6.9995 138.8 7.85459V8.55087C136.363 9.17386 134.573 11.2383 134.573 13.6814C134.573 15.4343 135.502 17.7614 139.887 18.9401H139.893H139.899C139.918 18.9463 139.936 18.9524 139.954 18.9585C139.96 18.9585 139.973 18.9585 139.979 18.9646C141.157 19.2455 143.033 19.8991 143.033 21.255C143.033 22.4949 141.829 23.4965 140.345 23.4965Z" fill="#245492"/>
<path d="M77.7651 35.4556H80.1226C80.2631 35.8465 80.4219 36.2313 80.5991 36.6039L78.9316 38.2713C78.1682 39.0347 78.1682 40.2807 78.9316 41.0442L82.6268 44.7394C83.3659 45.4784 84.6607 45.4784 85.3997 44.7394L87.0672 43.072C87.4458 43.2491 87.8306 43.4079 88.2215 43.5484V45.906C88.2215 46.987 89.101 47.8666 90.1821 47.8666H95.4042C96.4853 47.8666 97.3648 46.987 97.3648 45.906V43.5484C97.7557 43.4079 98.1405 43.2491 98.5131 43.072L100.18 44.7394C100.944 45.5029 102.19 45.5029 102.953 44.7394L106.649 41.0442C107.412 40.2807 107.412 39.0347 106.649 38.2713L104.981 36.6039C105.158 36.2252 105.317 35.8404 105.458 35.4556H107.815C108.896 35.4556 109.776 34.5761 109.776 33.495V28.2729C109.776 27.1918 108.896 26.3123 107.815 26.3123H105.458C105.317 25.9214 105.158 25.5366 104.981 25.1641L106.649 23.4966C107.412 22.7332 107.412 21.4872 106.649 20.7237L102.953 17.0285C102.184 16.2651 100.944 16.2651 100.18 17.0285L98.5131 18.6959C98.1344 18.5188 97.7496 18.36 97.3648 18.2195V15.862C97.3648 14.7809 96.4853 13.9014 95.4042 13.9014H90.1821C89.101 13.9014 88.2215 14.7809 88.2215 15.862V18.2195C87.8306 18.36 87.4519 18.5188 87.0733 18.6959L85.4058 17.0285C85.0333 16.656 84.5447 16.4544 84.0194 16.4544C83.4941 16.4544 83.0055 16.656 82.6329 17.0285L78.9377 20.7237C78.1743 21.4872 78.1743 22.7332 78.9377 23.4966L80.6052 25.1641C80.428 25.5427 80.2692 25.9275 80.1288 26.3123H77.7712C76.6901 26.3123 75.8106 27.1918 75.8106 28.2729V33.495C75.8045 34.5761 76.684 35.4556 77.7651 35.4556ZM78.2781 28.7921H81.0205C81.5763 28.7921 82.0649 28.4256 82.2115 27.8881C82.4436 27.0758 82.7734 26.2818 83.1948 25.5305C83.4636 25.048 83.3842 24.4433 82.9872 24.0524L81.0449 22.1102L84.0072 19.1479L85.9494 21.0902C86.3403 21.4811 86.945 21.5666 87.4275 21.2978C88.1849 20.8764 88.9789 20.5405 89.7851 20.3145C90.3165 20.1618 90.689 19.6732 90.689 19.1235V16.3811H94.8729V19.1235C94.8729 19.6793 95.2393 20.1679 95.7768 20.3145C96.583 20.5405 97.377 20.8703 98.1344 21.2978C98.6169 21.5666 99.2216 21.4872 99.6125 21.0902L101.555 19.1479L104.517 22.1102L102.575 24.0524C102.184 24.4433 102.098 25.048 102.367 25.5305C102.788 26.2879 103.118 27.0819 103.35 27.8881C103.503 28.4195 103.986 28.7921 104.541 28.7921H107.284V32.9759H104.541C103.986 32.9759 103.497 33.3423 103.35 33.8798C103.124 34.686 102.795 35.48 102.367 36.2374C102.098 36.7199 102.178 37.3246 102.575 37.7216L104.517 39.6638L101.555 42.6261L99.6125 40.6838C99.2216 40.2929 98.6169 40.2074 98.1283 40.4762C97.3709 40.8976 96.583 41.2274 95.7707 41.4595C95.2393 41.6122 94.8668 42.1008 94.8668 42.6505V45.3929H90.6829V42.6505C90.6829 42.0947 90.3165 41.6061 89.779 41.4595C88.9728 41.2335 88.1788 40.9037 87.4214 40.4762C86.9389 40.2074 86.3342 40.2868 85.9372 40.6838L83.995 42.6261L81.0327 39.6638L82.975 37.7216C83.3659 37.3307 83.4514 36.726 83.1826 36.2374C82.7612 35.48 82.4314 34.686 82.1993 33.8798C82.0466 33.3484 81.5641 32.9759 81.0083 32.9759H78.2659V28.7921H78.2781Z" fill="#245492"/>
<path d="M85.5647 35.2418C86.2732 36.4084 87.2626 37.3978 88.4292 38.1002C89.156 38.54 89.9378 38.8637 90.7624 39.0653C91.422 39.2302 92.1061 39.3096 92.784 39.3096C93.4681 39.3096 94.1461 39.2241 94.8057 39.0653C95.6302 38.8637 96.4181 38.5339 97.145 38.1002C98.3116 37.3917 99.301 36.4023 100.003 35.2357C100.443 34.5089 100.767 33.721 100.968 32.9025C101.133 32.2429 101.213 31.5588 101.213 30.8809C101.213 30.2029 101.133 29.5188 100.968 28.8531C100.767 28.0286 100.443 27.2407 100.003 26.5199C99.2949 25.3534 98.3054 24.3639 97.1389 23.6615C96.412 23.2218 95.6302 22.8981 94.8057 22.6965C93.4803 22.3667 92.0816 22.3728 90.7563 22.6965C89.9317 22.8981 89.1438 23.2279 88.4231 23.6615C87.2565 24.37 86.2671 25.3595 85.5586 26.5261C85.1249 27.2468 84.7951 28.0347 84.5935 28.8592C84.4286 29.5188 84.3492 30.2029 84.3492 30.8809C84.3492 31.5588 84.4286 32.2429 84.5935 32.9025C84.8012 33.7332 85.1249 34.515 85.5647 35.2418ZM87.0061 29.4517C87.1527 28.8653 87.3787 28.3156 87.6902 27.8026C88.191 26.978 88.8873 26.2756 89.7179 25.7809C90.2249 25.4755 90.7807 25.2434 91.3609 25.1029C92.2954 24.8709 93.2849 24.8709 94.2255 25.1029C94.8057 25.2495 95.3615 25.4755 95.8746 25.787C96.6991 26.2879 97.4015 26.9841 97.8962 27.8087C98.2077 28.3217 98.4337 28.8714 98.5803 29.4578C98.6963 29.9281 98.7574 30.4106 98.7513 30.887C98.7513 31.3695 98.6902 31.852 98.5803 32.3162C98.4337 32.8964 98.2077 33.4522 97.8962 33.9592C97.3954 34.7837 96.6991 35.4861 95.8746 35.9808C95.3615 36.2923 94.8118 36.5183 94.2255 36.6649C93.2971 36.897 92.3076 36.897 91.367 36.6649C90.7868 36.5244 90.231 36.2923 89.7241 35.9808C88.8995 35.48 88.1971 34.7837 87.7024 33.9592C87.397 33.4461 87.1649 32.8903 87.0183 32.3101C86.9023 31.8398 86.8473 31.3634 86.8473 30.8809C86.8473 30.3984 86.8901 29.922 87.0061 29.4517Z" fill="#245492"/>
</g>
</svg>
