<svg width="145" height="188" viewBox="0 0 145 188" fill="none" xmlns="http://www.w3.org/2000/svg">
<g opacity="0.85">
<path d="M81.0473 27.4923C78.1518 27.4923 75.7978 29.8478 75.7978 32.7418C75.7978 33.7547 76.0877 34.7024 76.5862 35.5051L74.03 37.7476V23.8625C77.4112 23.02 80.216 19.454 79.2126 13.0514C78.2793 7.09474 71.0867 0.606138 70.7793 0.333788C70.4862 0.0725878 70.0929 -0.0468636 69.7026 0.0168438C69.314 0.0773659 68.9732 0.309898 68.7757 0.64914C68.5671 1.00272 63.703 9.38024 64.6379 15.3369C65.5011 20.8428 68.403 23.4898 71.4084 23.9772V35.5098L69.7998 34.0987C70.6344 32.2847 70.233 29.6711 67.4984 27.0049C64.6315 24.2081 58.5522 23.3545 58.2942 23.3194C57.8865 23.2637 57.4692 23.4054 57.1794 23.7033C56.8895 23.9995 56.7573 24.4168 56.8242 24.8277C56.8656 25.0841 57.8706 31.1395 60.7374 33.9363C62.6072 35.7599 64.4261 36.4941 65.9614 36.4941C66.7164 36.4941 67.4028 36.3157 67.9937 36.0036L71.4068 38.9962V76.5836H74.0284V41.234L78.4863 37.3239C79.2444 37.7492 80.1172 37.9928 81.0457 37.9928C83.9413 37.9928 86.2952 35.6373 86.2952 32.7434C86.2952 29.8494 83.9428 27.4923 81.0473 27.4923ZM62.569 32.0585C61.2391 30.762 60.3265 28.193 59.8216 26.277C61.7472 26.731 64.3353 27.5799 65.6684 28.8795C67.4729 30.6394 68.0638 32.4614 67.1368 33.4123C66.2099 34.3615 64.3735 33.8184 62.569 32.0585ZM67.2276 14.9292C66.6463 11.223 68.9636 5.98942 70.2442 3.45705C72.2366 5.47657 76.0431 9.74975 76.6245 13.4559C77.3093 17.8294 75.9077 20.9431 73.0537 21.3907C70.198 21.835 67.9125 19.3027 67.2276 14.9292ZM81.0473 35.3713C79.598 35.3713 78.4178 34.1911 78.4178 32.7418C78.4178 31.2924 79.598 30.1122 81.0473 30.1122C82.4967 30.1122 83.6769 31.2924 83.6769 32.7418C83.6769 34.1911 82.4967 35.3713 81.0473 35.3713Z" fill="#245492"/>
<path d="M82.4696 187.993C82.562 185.252 82.8471 178.81 83.6514 171.853C85.0306 159.911 87.2716 151.906 90.1288 148.704C97.9346 139.955 106.471 138.893 112.119 139.004C112.385 139.101 112.669 139.106 112.93 139.028C113.724 139.06 114.449 139.109 115.097 139.157C115.209 139.187 115.324 139.203 115.438 139.203C115.497 139.203 115.558 139.198 115.617 139.189C118.477 139.34 121.417 138.177 123.792 137.235C125.33 136.623 127.439 135.787 128.032 136.113C128.154 136.18 128.267 136.435 128.336 136.795C128.611 138.232 127.926 139.426 126.812 140.396C126.778 140.42 126.746 140.444 126.713 140.468C126.638 140.52 126.571 140.581 126.512 140.645C123.935 142.674 119.547 143.656 118.835 143.804C114.139 144.789 107.25 148.664 106.959 148.829C106.336 149.181 106.116 149.971 106.468 150.596C106.82 151.218 107.612 151.438 108.234 151.086C108.303 151.048 115.064 147.243 119.366 146.343C122.658 145.654 125.966 144.405 128.207 142.586C128.21 142.583 128.215 142.581 128.218 142.58C129.682 141.536 134.514 137.956 135.223 135.728C135.602 134.533 137.707 128.59 141.944 128.59C141.953 128.59 141.963 128.59 141.972 128.59C142.033 128.59 142.076 128.594 142.105 128.599C142.175 128.854 142.345 130.185 140.195 134.548C138.747 137.485 136.927 140.441 136.052 141.861C135.887 142.131 135.758 142.341 135.673 142.483C135.317 143.078 132.854 145.208 129.338 147.496C125.42 150.045 121.758 151.782 119.289 152.263C112.845 153.518 105.909 158.602 103.496 163.836C101.566 168.023 102.993 182.913 103.55 187.998H106.156C105.245 179.903 104.481 167.891 105.849 164.92C107.914 160.438 114.166 155.901 119.783 154.807C126.202 153.555 136.595 145.986 137.897 143.812C137.976 143.679 138.101 143.478 138.258 143.22C143.764 134.28 145.586 129.516 144.353 127.293C144.087 126.814 143.426 126.006 141.988 125.998C141.972 125.998 141.958 125.998 141.942 125.998C140.152 125.998 138.658 126.653 137.428 127.613C138.051 122.996 137.304 121.464 136.685 120.712C136.13 120.042 135.337 119.702 134.453 119.76C130.515 120.014 129.097 126.095 128.336 129.362C128.219 129.859 128.121 130.287 128.046 130.533C127.966 130.795 127.727 131.136 127.387 131.51C127.506 131.093 127.624 130.66 127.739 130.219C129.17 124.681 128.578 122.916 128.008 122.071C127.559 121.405 126.869 121.024 126.063 121C122.032 120.875 120.344 126.363 119.437 129.311C119.316 129.706 119.211 130.047 119.13 130.268C118.751 131.315 116.47 134.457 114.857 136.547C114.823 136.545 114.788 136.542 114.753 136.54C115.333 135.481 116.07 134.079 116.776 132.594C119.576 126.694 119.321 124.797 118.788 123.803C118.401 123.084 117.714 122.665 116.854 122.622C113.056 122.434 111.254 126.465 110.287 128.631C110.096 129.058 109.932 129.427 109.797 129.674C108.958 131.206 105.651 135.917 104.85 137.058C104.339 137.163 103.821 137.279 103.296 137.416C97.6208 138.894 92.5402 142.111 88.1937 146.982C84.9303 150.639 82.5349 158.916 81.0728 171.581C80.2526 178.686 79.9659 185.259 79.8751 188H82.4696V187.993ZM130.527 131.275C130.624 130.951 130.728 130.507 130.859 129.945C131.174 128.59 131.652 126.543 132.383 124.882C132.787 123.961 133.617 122.407 134.619 122.341C134.643 122.34 134.66 122.34 134.67 122.341C134.748 122.426 135.374 123.249 134.885 127.062C134.584 129.411 134.014 131.609 134.009 131.632C133.975 131.762 133.963 131.894 133.969 132.022C133.3 133.318 132.908 134.447 132.752 134.938C132.619 135.36 131.932 136.126 130.975 137.016C130.957 136.782 130.925 136.545 130.879 136.304C130.653 135.129 130.115 134.299 129.275 133.839C129.153 133.772 129.029 133.716 128.901 133.667C129.64 132.925 130.282 132.093 130.527 131.275ZM121.567 131.147C121.669 130.867 121.782 130.498 121.914 130.069C122.508 128.14 123.886 123.663 125.894 123.587C126.018 123.888 126.347 125.2 125.257 129.461C124.69 131.675 123.978 133.743 123.719 134.476C123.429 134.589 123.134 134.705 122.835 134.825C121.377 135.403 119.797 136.029 118.241 136.365C119.558 134.584 121.145 132.31 121.567 131.147ZM112.071 130.913C112.256 130.574 112.441 130.16 112.656 129.682C113.651 127.451 114.769 125.278 116.536 125.205C116.571 125.699 116.43 127.303 114.384 131.592C113.431 133.587 112.404 135.449 111.851 136.422C110.722 136.411 109.563 136.445 108.367 136.548C109.685 134.642 111.447 132.052 112.071 130.913Z" fill="#245492"/>
<path d="M39.2887 164.915C40.6585 167.886 39.894 179.898 38.9814 187.993H41.587C42.146 182.908 43.5715 168.018 41.6411 163.831C39.2298 158.597 32.2921 153.513 25.8497 152.258C23.381 151.777 19.7194 150.04 15.8014 147.491C12.2832 145.203 9.82247 143.075 9.46571 142.478C9.3813 142.338 9.25229 142.127 9.08665 141.858C8.21227 140.437 6.39183 137.481 4.94407 134.545C2.79395 130.182 2.96437 128.851 3.03444 128.596C3.06311 128.591 3.10771 128.586 3.16664 128.586C3.17619 128.586 3.18575 128.586 3.19531 128.586C7.43185 128.586 9.53579 134.53 9.91644 135.725C10.6252 137.954 15.4574 141.533 16.9211 142.576C16.9243 142.58 16.929 142.581 16.9322 142.583C19.1731 144.402 22.4811 145.65 25.7732 146.34C30.0751 147.241 36.8376 151.045 36.9045 151.083C37.5272 151.435 38.3172 151.215 38.6708 150.592C39.0228 149.97 38.803 149.18 38.1802 148.826C37.8888 148.662 31.002 144.785 26.3036 143.801C25.5916 143.651 21.2038 142.67 18.6268 140.641C18.5679 140.578 18.501 140.517 18.4262 140.465C18.3927 140.441 18.3609 140.417 18.3274 140.393C17.2141 139.421 16.5277 138.228 16.8032 136.792C16.8717 136.432 16.9864 136.177 17.1074 136.11C17.7015 135.784 19.8086 136.621 21.3471 137.231C23.7202 138.173 26.6619 139.338 29.5224 139.186C29.5813 139.194 29.6403 139.2 29.7008 139.2C29.8155 139.2 29.9301 139.184 30.0416 139.154C30.6882 139.106 31.4145 139.057 32.2093 139.025C32.4705 139.103 32.754 139.098 33.0199 139.001C38.666 138.889 47.2028 139.952 55.0101 148.7C57.869 151.903 60.1083 159.908 61.4876 171.85C62.2919 178.808 62.577 185.249 62.6694 187.99H65.2623C65.1715 185.251 64.8848 178.678 64.0646 171.571C62.6025 158.906 60.2071 150.631 56.9437 146.972C52.5972 142.102 47.5166 138.883 41.8418 137.407C41.3178 137.27 40.8002 137.152 40.2874 137.048C39.4846 135.909 36.1782 131.197 35.3405 129.665C35.2051 129.418 35.0411 129.05 34.8499 128.621C33.8832 126.455 32.0834 122.421 28.2833 122.612C27.4232 122.655 26.7368 123.076 26.3498 123.794C25.8146 124.788 25.5598 126.685 28.3613 132.584C29.0669 134.07 29.8043 135.471 30.384 136.531C30.3506 136.532 30.3156 136.535 30.2805 136.537C28.6687 134.449 26.388 131.307 26.0089 130.259C25.9293 130.039 25.8242 129.696 25.7015 129.301C24.7937 126.353 23.1023 120.865 19.076 120.989C18.2717 121.015 17.5804 121.394 17.1313 122.059C16.5611 122.905 15.9686 124.67 17.4005 130.208C17.5151 130.649 17.633 131.082 17.7525 131.499C17.4132 131.125 17.1727 130.784 17.0931 130.521C17.0198 130.276 16.9195 129.848 16.8032 129.351C16.0419 126.084 14.626 120.003 10.6857 119.748C9.80177 119.691 9.00861 120.029 8.45435 120.701C7.8348 121.451 7.08783 122.985 7.71057 127.6C6.48102 126.64 4.98708 125.985 3.1969 125.985C3.18256 125.985 3.16664 125.985 3.15071 125.985C1.71252 125.995 1.05155 126.801 0.78398 127.28C-0.448759 129.504 1.37327 134.267 6.87919 143.207C7.03686 143.464 7.16109 143.664 7.24073 143.798C8.54195 145.974 18.9342 153.542 25.3543 154.792C30.9717 155.896 37.223 160.434 39.2887 164.915ZM28.6034 125.203C30.3633 125.267 31.4846 127.446 32.4832 129.682C32.6966 130.161 32.8814 130.576 33.0677 130.913C33.692 132.052 35.4536 134.642 36.7739 136.547C35.5778 136.445 34.4167 136.411 33.2891 136.421C32.738 135.448 31.7092 133.586 30.7567 131.59C28.7053 127.298 28.5668 125.696 28.6034 125.203ZM19.2432 123.587C21.2484 123.657 22.6293 128.14 23.2233 130.071C23.3555 130.499 23.4686 130.869 23.5705 131.149C23.9926 132.312 25.5789 134.586 26.8961 136.367C25.34 136.03 23.7601 135.405 22.3028 134.826C22.0033 134.707 21.7087 134.591 21.4188 134.478C21.1592 133.747 20.4521 131.692 19.8851 129.48C18.7893 125.202 19.119 123.886 19.2432 123.587ZM10.4659 122.341C10.4755 122.34 10.493 122.34 10.5169 122.341C11.5187 122.407 12.3485 123.961 12.753 124.882C13.4841 126.544 13.9619 128.591 14.2772 129.945C14.4078 130.507 14.5113 130.95 14.6085 131.275C14.8538 132.093 15.4956 132.925 16.2346 133.669C16.1072 133.716 15.9814 133.774 15.8603 133.841C15.0226 134.301 14.4827 135.131 14.2565 136.306C14.2103 136.548 14.1785 136.785 14.1609 137.018C13.2053 136.128 12.5173 135.36 12.3835 134.939C12.2274 134.449 11.8356 133.32 11.1667 132.023C11.1731 131.896 11.1603 131.764 11.1253 131.633C11.1189 131.611 10.5551 129.435 10.2525 127.086C9.75876 123.252 10.3879 122.427 10.4659 122.341Z" fill="#245492"/>
<path d="M141.186 74.1643L138.056 70.3355C137.824 70.052 137.478 69.8879 137.112 69.8879C136.745 69.8879 136.398 70.052 136.167 70.3355L133.037 74.1643C132.611 74.6867 132.689 75.456 133.211 75.8812C133.732 76.3081 134.501 76.23 134.928 75.7076L135.892 74.529V87.7499C135.892 88.4236 136.438 88.9699 137.112 88.9699C137.785 88.9699 138.332 88.4236 138.332 87.7499V74.529L139.295 75.7076C139.537 76.0023 139.888 76.1552 140.241 76.1552C140.514 76.1552 140.786 76.0644 141.014 75.8796C141.534 75.4544 141.611 74.6851 141.186 74.1643Z" fill="#245492"/>
<path d="M130.937 59.2471L127.809 55.4182C127.576 55.1347 127.23 54.9707 126.864 54.9707C126.498 54.9707 126.151 55.1347 125.92 55.4182L122.788 59.2471C122.362 59.7695 122.44 60.5371 122.962 60.964C123.483 61.3892 124.252 61.3144 124.679 60.7904L125.643 59.6118V81.215C125.643 81.8887 126.189 82.435 126.863 82.435C127.536 82.435 128.083 81.8887 128.083 81.215V59.6134L129.046 60.792C129.288 61.0866 129.639 61.2395 129.992 61.2395C130.265 61.2395 130.537 61.1487 130.765 60.964C131.287 60.5387 131.363 59.7695 130.937 59.2471Z" fill="#245492"/>
<path d="M16.7712 83.5579C16.545 83.2807 16.2058 83.1199 15.849 83.1199C15.4907 83.1199 15.153 83.2807 14.9269 83.5579L11.8721 87.2959C11.4564 87.8055 11.5313 88.5557 12.0409 88.973C12.5506 89.3903 13.3023 89.3138 13.718 88.8042L14.6593 87.6526V97.8076C14.6593 98.4654 15.1929 98.999 15.8506 98.999C16.5084 98.999 17.042 98.4654 17.042 97.8076V87.6526L17.9832 88.8042C18.219 89.0924 18.5614 89.2422 18.907 89.2422C19.173 89.2422 19.439 89.1546 19.6603 88.973C20.17 88.5557 20.2449 87.8055 19.8292 87.2959L16.7712 83.5579Z" fill="#245492"/>
<path d="M15.8858 78.9089C16.3525 78.936 16.7539 78.5792 16.7809 78.1126L16.8749 76.5071C16.902 76.0405 16.5452 75.6391 16.0786 75.612C15.6119 75.585 15.2105 75.9417 15.1835 76.4084L15.0895 78.0138C15.0608 78.4805 15.4192 78.8818 15.8858 78.9089Z" fill="#245492"/>
<path d="M22.9317 79.487C22.6307 79.1494 22.0733 79.116 21.7356 79.417L20.5348 80.4857C20.186 80.7962 20.1541 81.333 20.4647 81.6818C20.6144 81.8506 20.8214 81.9509 21.0476 81.9637C21.2738 81.9764 21.492 81.9016 21.6608 81.7503L22.8617 80.6816C23.0305 80.5318 23.1308 80.3248 23.1452 80.0986C23.1595 79.8741 23.0831 79.6559 22.9317 79.487Z" fill="#245492"/>
<path d="M10.0279 78.7386C9.71729 78.3898 9.18055 78.358 8.83175 78.6685C8.48295 78.9791 8.4511 79.5158 8.76167 79.8646L9.83037 81.0655C9.98645 81.2407 10.1967 81.3347 10.4133 81.3474C10.6299 81.3602 10.8513 81.2901 11.0265 81.1356C11.3753 80.825 11.4071 80.2883 11.0966 79.9395L10.0279 78.7386Z" fill="#245492"/>
<path d="M109.173 103.073C106.828 85.2383 93.91 70.4788 89.7149 66.0989C91.2518 63.8899 94.2891 59.5212 97.089 55.471C98.8027 52.9927 99.1244 50.935 98.0462 49.3534C96.4917 47.0743 92.7553 46.8306 85.5532 48.5332C83.4811 49.0222 82.1146 49.2754 81.4791 49.2881C81.4233 49.1448 81.3612 48.9712 81.3055 48.8183C81.1876 48.4902 81.0554 48.1255 80.8882 47.7225C80.5123 46.8179 79.8036 46.1681 78.8926 45.8957C76.6978 45.238 74.2101 46.8227 70.0006 49.6784C68.083 50.9796 66.1001 52.3238 64.6492 52.9322C62.9641 53.6394 61.674 53.0278 58.9219 51.5721C56.9454 50.5273 54.4831 49.226 51.1623 48.3835C48.5232 47.7146 47.351 48.8565 46.8875 49.5955C46.2537 50.6101 44.6084 53.2428 55.3065 66.2184C50.9983 70.74 38.287 85.3959 35.9633 103.073C34.5299 113.978 36.637 122.74 42.2273 129.114C48.4739 136.234 58.683 139.847 72.568 139.847C86.453 139.847 96.6622 136.234 102.909 129.114C108.499 122.741 110.608 113.98 109.173 103.073ZM72.9487 96.1147C78.4355 97.408 81.4584 100.28 81.4584 104.221C81.4584 108.16 78.3909 111.454 74.3295 112.206V114.294C74.3295 115.267 73.5411 116.055 72.568 116.055C71.5949 116.055 70.8065 115.267 70.8065 114.294V112.204C66.7451 111.452 63.6776 108.159 63.6776 104.22C63.6776 103.247 64.466 102.458 65.4391 102.458C66.4123 102.458 67.2007 103.247 67.2007 104.22C67.2007 106.77 69.6088 108.843 72.568 108.843C75.5272 108.843 77.9354 106.77 77.9354 104.22C77.9354 101.495 74.8344 100.176 72.1603 99.5438C72.1475 99.5406 72.1332 99.5422 72.1205 99.539C72.087 99.5294 72.0552 99.5199 72.0217 99.5103C72.0122 99.5087 72.0026 99.5055 71.993 99.5039C71.9835 99.5023 71.9755 99.4976 71.9676 99.496C66.4712 98.01 63.6792 95.3072 63.6792 91.4529C63.6792 87.5142 66.7467 84.2205 70.8081 83.4704V81.3824C70.8081 80.4092 71.5965 79.6208 72.5696 79.6208C73.5427 79.6208 74.3311 80.4092 74.3311 81.3824V83.4704C78.3925 84.2205 81.46 87.5142 81.46 91.4529C81.46 92.426 80.6716 93.2144 79.6985 93.2144C78.7253 93.2144 77.937 92.426 77.937 91.4529C77.937 88.9046 75.5288 86.8293 72.5696 86.8293C69.6104 86.8293 67.2022 88.903 67.2022 91.4529C67.2007 92.2286 67.2054 94.5809 72.9487 96.1147Z" fill="#245492"/>
</g>
</svg>
