<svg width="39" height="35" viewBox="0 0 39 35" fill="none" xmlns="http://www.w3.org/2000/svg">
<path d="M31.3855 34.3851H3.37069C2.63932 34.3851 2.02454 33.4206 2.02454 32.297V1.68526L23.3192 1.66406L22.9376 8.89301L30.6754 7.89665V32.35C30.6966 33.1132 30.9403 33.8022 31.3855 34.3851ZM27.5697 29.4775V27.8558H5.03483V29.4775H27.5697ZM27.5697 25.492V23.8703H5.03483V25.492H27.5697ZM27.5697 21.5066V19.8848H5.03483V21.5066H27.5697ZM27.5697 17.5211V15.8994H5.03483V17.5211H27.5697ZM27.5697 13.5357V11.9139H5.03483V13.5357H27.5697Z" fill="#27AE60"/>
<path d="M38.9961 31.5339V31.6505C38.9219 33.5055 37.3001 35 35.318 35H33.2299H2.7877C1.22956 35 0 33.4525 0 31.4809V0.0211993L22.4076 0L31.0145 7.38795V12.8256H35.742H36.272H36.7913C38.0103 12.8256 38.9961 13.9809 38.9961 15.4013V17.1502V31.5339ZM37.9891 31.5339V17.1396V15.3907C37.9891 14.8077 37.6181 14.2883 37.2047 14.2883H36.0918C35.6678 14.2883 35.3074 14.8077 35.3074 15.3907V24.2838V25.0787V25.8843H31.0357V31.5339C31.0357 32.6363 32.0957 33.5266 33.3995 33.5266H35.636C36.9291 33.5266 37.9891 32.6363 37.9891 31.5339ZM34.4064 14.2459H31.0145V24.9621H34.1944V15.2953C34.1944 14.9243 34.2686 14.5745 34.4064 14.2459ZM2.51211 33.8658H30.527C30.0924 33.2829 29.838 32.5833 29.838 31.8307V7.36675L22.1002 8.36311L22.4818 1.13416L1.17656 1.15536V31.7671C1.17656 32.9013 1.79134 33.8658 2.51211 33.8658ZM23.4146 7.06996L28.0148 6.47638L23.6372 2.76651L23.4146 7.06996Z" fill="#111111"/>
<path d="M26.7111 27.3364H4.17627V28.9582H26.7111V27.3364Z" fill="#111111"/>
<path d="M26.7111 23.3508H4.17627V24.9726H26.7111V23.3508Z" fill="#111111"/>
<path d="M26.7111 19.3655H4.17627V20.9872H26.7111V19.3655Z" fill="#111111"/>
<path d="M26.7111 15.3799H4.17627V17.0016H26.7111V15.3799Z" fill="#111111"/>
<path d="M26.7111 11.3945H4.17627V13.0163H26.7111V11.3945Z" fill="#111111"/>
</svg>
