<svg width="143" height="30" viewBox="0 0 143 30" fill="none" xmlns="http://www.w3.org/2000/svg">
<g clip-path="url(#clip0)">
<path d="M35.5362 0V9.51421L32.4565 6.43446C32.4565 6.44363 20.1558 18.7351 19.0009 19.89C18.9918 19.89 12.8414 13.7305 12.2731 13.1622L3.36389 22.0715L0 18.7076L12.2731 6.44363L19.0009 13.1714L29.0926 3.07974L26.022 0H35.5362Z" fill="#063C83"/>
<path d="M17.8094 29.9999H13.4648V17.7268L17.8094 22.0806V29.9999Z" fill="#F8952C"/>
<path d="M6.72778 29.9999H11.0816V17.7268L6.72778 22.0806V29.9999Z" fill="#F8952C"/>
<path d="M20.1926 29.9999H24.5464V17.7268L20.1926 22.0806V29.9999Z" fill="#F8952C"/>
<path d="M26.9203 29.9999H31.2741V10.999L26.9203 15.3437V29.9999Z" fill="#F8952C"/>
</g>
<path d="M46.3336 28.4143H50.252V21.9065H55.1557V18.8588H50.252V15.4675H56.8056V12.3281H46.3336V28.4143Z" fill="#111111"/>
<path d="M59.5525 28.4143H63.4709V15.6279H59.5525V28.4143ZM61.5232 14.2988C62.8981 14.2988 63.8376 13.3593 63.8376 12.1906C63.8376 10.9991 62.8981 10.0596 61.5232 10.0596C60.1254 10.0596 59.1859 10.9991 59.1859 12.1906C59.1859 13.3593 60.1254 14.2988 61.5232 14.2988Z" fill="#111111"/>
<path d="M75.8202 28.4143H79.7157V20.9441C79.7157 17.5069 77.745 15.4904 74.789 15.4904C73.0704 15.4904 71.6955 16.2466 70.9164 17.3235V15.6279H66.998V28.4143H70.9164V21.4711C70.9164 19.7296 71.8789 18.7672 73.3683 18.7672C74.8578 18.7672 75.8202 19.7296 75.8202 21.4711V28.4143Z" fill="#111111"/>
<path d="M82.347 21.9982C82.347 26.0312 84.8447 28.5976 87.9611 28.5976C89.863 28.5976 91.215 27.7268 91.9253 26.604V28.4143H95.8438V15.6279H91.9253V17.4381C91.2379 16.3153 89.8859 15.4445 87.984 15.4445C84.8447 15.4445 82.347 17.9652 82.347 21.9982ZM91.9253 22.0211C91.9253 24.0605 90.6192 25.1833 89.1297 25.1833C87.6632 25.1833 86.3341 24.0376 86.3341 21.9982C86.3341 19.9587 87.6632 18.8588 89.1297 18.8588C90.6192 18.8588 91.9253 19.9817 91.9253 22.0211Z" fill="#111111"/>
<path d="M108.188 28.4143H112.084V20.9441C112.084 17.5069 110.113 15.4904 107.157 15.4904C105.438 15.4904 104.064 16.2466 103.284 17.3235V15.6279H99.366V28.4143H103.284V21.4711C103.284 19.7296 104.247 18.7672 105.736 18.7672C107.226 18.7672 108.188 19.7296 108.188 21.4711V28.4143Z" fill="#111111"/>
<path d="M114.715 22.0211C114.715 26.077 117.373 28.5976 121.131 28.5976C124.339 28.5976 126.608 26.7415 127.272 23.7855H123.102C122.758 24.725 122.139 25.2521 121.062 25.2521C119.665 25.2521 118.702 24.1521 118.702 22.0211C118.702 19.89 119.665 18.7901 121.062 18.7901C122.139 18.7901 122.781 19.363 123.102 20.2566H127.272C126.608 17.209 124.339 15.4445 121.131 15.4445C117.373 15.4445 114.715 17.9881 114.715 22.0211Z" fill="#111111"/>
<path d="M135.693 18.5839C136.999 18.5839 138.099 19.3859 138.099 20.7837H133.195C133.424 19.363 134.409 18.5839 135.693 18.5839ZM141.811 24.1751H137.64C137.32 24.8625 136.701 25.4125 135.601 25.4125C134.341 25.4125 133.31 24.6334 133.172 22.9606H142.04C142.086 22.571 142.109 22.1815 142.109 21.8148C142.109 17.9193 139.474 15.4445 135.739 15.4445C131.935 15.4445 129.277 17.9652 129.277 22.0211C129.277 26.077 131.981 28.5976 135.739 28.5976C138.924 28.5976 141.192 26.6728 141.811 24.1751Z" fill="#111111"/>
<defs>
<clipPath id="clip0">
<rect width="35.5362" height="30" fill="white"/>
</clipPath>
</defs>
</svg>
