<svg width="51" height="60" viewBox="0 0 51 60" fill="none" xmlns="http://www.w3.org/2000/svg">
<path d="M41.9024 39.2417C41.9024 41.0975 40.6602 42.5941 39.1336 42.5941C37.607 42.5941 36.3648 41.0825 36.3648 39.2417C36.3648 37.4008 37.607 35.8892 39.1336 35.8892C40.6452 35.8742 41.9024 37.3858 41.9024 39.2417ZM15.7263 24.7692C18.4052 23.4522 21.4434 22.7488 24.5414 22.7488C26.9959 22.7488 29.3755 23.1678 31.6205 24.0209C31.6504 24.0209 31.6953 24.0359 31.7253 24.0509C31.7552 24.0509 31.8001 24.0658 31.83 24.0958C31.86 24.1107 31.8899 24.1257 31.9198 24.1556C31.9498 24.1706 31.9797 24.2005 31.9947 24.2304C32.1144 24.3651 32.1892 24.5447 32.1892 24.7393V26.9693C32.1892 27.2237 32.0545 27.4482 31.86 27.5829C31.8151 27.6128 31.7851 27.6278 31.7402 27.6428C31.6953 27.6577 31.6504 27.6877 31.6055 27.6877C31.5157 27.7026 31.411 27.7026 31.3062 27.6877C31.2763 27.6877 31.2314 27.6727 31.1865 27.6577C29.0912 26.8496 26.8462 26.4455 24.5265 26.4455C21.5781 26.4455 18.6896 27.1189 16.1752 28.4061C16.0705 28.451 15.9508 28.4809 15.831 28.4809C15.5616 28.4809 15.3072 28.3312 15.1725 28.0768C15.1426 28.0169 15.1126 27.9271 15.1126 27.8523C15.0977 27.8224 15.0977 27.7775 15.0977 27.7326C15.0977 27.7176 15.0977 27.7176 15.0977 27.7026V25.5026V25.4727C15.0977 25.1284 15.3671 24.8291 15.7263 24.7692ZM44.9106 20.1596C42.1718 21.6562 39.1037 24.4849 38.2805 28.3312C38.1907 28.7203 37.8016 28.9897 37.3975 28.8999C36.9934 28.8101 36.739 28.421 36.8288 28.0169C37.0084 27.2087 37.2628 26.4305 37.607 25.7121C34.0301 22.8535 29.4055 21.2671 24.5564 21.2671C15.6963 21.2671 8.1982 26.5053 5.89338 33.6443C5.41446 35.1259 5.16003 36.6824 5.16003 38.2838C5.16003 41.5465 6.22264 44.7194 8.21316 47.4582C8.25806 47.5181 8.28799 47.5929 8.31793 47.6677C8.42269 47.7276 8.52745 47.8323 8.58732 47.967C9.60503 50.1671 13.3167 57.4258 14.2296 59.2217H20.306C20.3808 58.2938 20.4856 56.9468 20.4856 55.8094C20.4856 55.7495 20.5005 55.6897 20.5005 55.6298C20.5155 55.5999 20.5304 55.555 20.5304 55.525C20.5454 55.4801 20.5753 55.4352 20.5903 55.4053C20.6202 55.3754 20.6502 55.3305 20.6801 55.2856C20.71 55.2556 20.74 55.2257 20.7849 55.2107C20.8298 55.1808 20.8597 55.1658 20.9046 55.1509C20.9345 55.1359 20.9794 55.1209 21.0243 55.1209C21.0692 55.106 21.1291 55.106 21.189 55.106C21.2339 55.106 21.2937 55.106 21.3386 55.1209C23.419 55.4203 25.619 55.4203 27.6993 55.106C28.1034 55.0461 28.4776 55.3155 28.5374 55.7346C28.5524 55.8094 28.5524 55.8842 28.5225 55.9591C28.5374 55.989 28.5374 56.0339 28.5374 56.0788V59.2666H34.1199C34.3893 56.4829 34.7036 54.5373 35.0777 53.325C35.1525 53.0855 35.3471 52.9059 35.5866 52.8461C35.6165 52.8311 35.6614 52.8161 35.6913 52.8012C36.9784 52.3671 38.3703 51.8882 39.7472 51.4093C42.6956 50.4066 45.7337 49.3589 47.8141 48.7004C48.1433 47.997 49.0263 45.8119 48.742 42.8785L48.2032 43.0282C47.8141 43.1329 47.3501 43.2526 46.8562 43.2676C46.8562 43.2676 46.8412 43.2676 46.8263 43.2676C44.1323 43.2676 43.8929 40.2744 43.6534 37.3709C43.5038 35.4253 43.3391 33.4198 42.5459 32.1177C42.3364 31.7735 42.4561 31.3095 42.7854 31.1C44.8358 27.2237 45.0303 23.4672 44.9106 20.1596Z" fill="#F8952C"/>
<path d="M3.72322 28.9897C3.46879 28.5108 3.31912 28.0169 3.31912 27.508C3.31912 27.2087 3.39396 26.9543 3.52866 26.7896C3.61845 26.6849 3.75315 26.625 3.84295 26.625C3.85791 26.625 3.87288 26.625 3.87288 26.625C4.05248 26.6699 4.18717 27.0441 4.18717 27.4332C4.20214 27.9869 4.02254 28.5257 3.72322 28.9897ZM5.47428 31.3843L4.90555 30.6659C4.80079 30.5462 4.69603 30.4115 4.60623 30.2918C5.29468 29.5135 5.69877 28.4958 5.71374 27.4631C5.7287 26.5352 5.29468 25.4726 4.3069 25.2032C3.64838 25.0236 2.87014 25.278 2.40618 25.8468C2.06196 26.2658 1.86739 26.8345 1.85242 27.4931C1.83746 28.406 2.15175 29.2591 2.58578 29.9775C2.07692 30.2169 1.49324 30.2918 0.939482 30.202C0.535391 30.1421 0.146267 30.4115 0.0864019 30.8156C0.0265365 31.2197 0.29593 31.6088 0.700021 31.6687C1.62793 31.8183 2.61571 31.6537 3.43886 31.2047C3.54362 31.3394 3.64839 31.4741 3.75315 31.5938L4.92052 33.0456C5.07018 32.4768 5.24978 31.9231 5.47428 31.3843Z" fill="#111111"/>
<path d="M5.47435 31.3843C5.24986 31.9231 5.07026 32.4918 4.90563 33.0606L4.9655 33.1354C5.11516 33.315 5.32469 33.4048 5.54918 33.4048C5.71381 33.4048 5.87844 33.3599 6.01314 33.2402C6.14784 33.1354 6.23764 32.9857 6.26757 32.8211C6.31247 32.6116 6.26757 32.3721 6.11791 32.1925L5.47435 31.3843Z" fill="#111111"/>
<path d="M4.27705 37.5356C4.27705 41.1275 5.42946 44.5997 7.62951 47.5929C7.67441 47.6678 7.73427 47.7276 7.80911 47.7725C7.70434 47.4133 7.854 47.0242 8.2132 46.8745C8.45266 46.7698 8.72205 46.7997 8.93158 46.9194C8.90165 46.8446 8.87171 46.7847 8.82682 46.7099C6.82133 43.9711 5.77369 40.7982 5.77369 37.5356C5.77369 35.9192 6.02811 34.3627 6.50704 32.896L6.26758 32.8212C6.23764 32.9708 6.14784 33.1205 6.01315 33.2402C5.87845 33.345 5.71382 33.4049 5.54919 33.4049C5.33966 33.4049 5.11517 33.3151 4.9655 33.1355L4.90564 33.0606C4.50155 34.4824 4.27705 35.994 4.27705 37.5356Z" fill="#111111"/>
<path d="M8.21323 46.8745C7.86901 47.0242 7.70438 47.4133 7.80914 47.7725C7.92887 47.8473 8.07853 47.8922 8.21323 47.8922C8.36289 47.8922 8.51256 47.8473 8.64725 47.7576C8.91665 47.563 9.02141 47.2337 8.91665 46.9344C8.72208 46.7847 8.45269 46.7548 8.21323 46.8745Z" fill="#111111"/>
<path d="M15.7262 24.7543V24.7842C15.7262 24.5148 15.8759 24.2604 16.1303 24.1257C16.2051 24.0958 16.265 24.0509 16.3398 24.0209C15.9956 24.0808 15.7262 24.3801 15.7262 24.7543Z" fill="#111111"/>
<path d="M15.7263 24.7991C15.7263 24.9039 15.7562 25.0236 15.8011 25.1284C15.9358 25.3828 16.1902 25.5325 16.4596 25.5325C16.5794 25.5325 16.6841 25.5026 16.8039 25.4577C16.9386 25.3978 17.0732 25.323 17.2079 25.2631V24.7542C17.2079 24.3352 16.8787 24.0059 16.4596 24.0059C16.4297 24.0059 16.3848 24.0059 16.3399 24.0209C16.2651 24.0508 16.2052 24.0808 16.1304 24.1257C15.8759 24.2603 15.7263 24.5297 15.7263 24.7991Z" fill="#111111"/>
<path d="M15.7412 27.149C15.8011 27.4932 16.1154 27.7476 16.4746 27.7476C16.8787 27.7476 17.2229 27.4184 17.2229 26.9993V25.8619C16.8637 26.0115 16.4895 26.1911 16.1453 26.3707C15.8909 26.5054 15.7412 26.7599 15.7412 27.0143C15.7263 27.0592 15.7263 27.1041 15.7412 27.149Z" fill="#111111"/>
<path d="M16.4746 25.5325C16.2052 25.5325 15.9508 25.3829 15.8161 25.1285C15.7712 25.0237 15.7412 24.904 15.7412 24.7992V26.9992V27.0142C15.7412 26.7598 15.8909 26.5054 16.1453 26.3707C16.4895 26.1911 16.8637 26.0264 17.2229 25.8618V25.2632C17.0882 25.323 16.9535 25.3829 16.8188 25.4577C16.6991 25.5026 16.5943 25.5325 16.4746 25.5325Z" fill="#111111"/>
<path d="M19.2433 8.6655C19.2433 4.71439 21.9672 1.5116 25.3346 1.5116H22.2964C21.7876 1.5116 21.2937 1.58643 20.8148 1.72113C18.944 3.29259 17.7467 5.8219 17.7467 8.6655C17.7467 11.5091 18.9589 14.0384 20.8148 15.6099C21.2937 15.7446 21.7876 15.8194 22.2964 15.8194H25.3346C21.9821 15.8194 19.2433 12.6166 19.2433 8.6655Z" fill="#111111"/>
<path d="M8.22815 47.9072C8.09346 47.9072 7.94379 47.8623 7.82406 47.7875C7.82406 47.8174 7.83903 47.8473 7.85399 47.8773C9.02137 50.4215 13.5412 59.2217 13.7358 59.5959C13.8555 59.8353 14.1249 60 14.3943 60H21.608C21.9822 60 22.2965 59.7156 22.3414 59.3415C22.4162 58.638 22.5509 57.2462 22.5958 55.9291C22.3115 55.8992 22.0271 55.8693 21.7577 55.8244C21.3836 55.7795 21.1291 55.4502 21.1291 55.091C21.1291 56.2285 21.0244 57.5754 20.9495 58.5033H14.8582C13.9453 56.7074 10.2336 49.4487 9.21593 47.2487C9.15606 47.114 9.06627 47.0092 8.94654 46.9493C9.0513 47.2487 8.94653 47.5779 8.67714 47.7725C8.52748 47.8623 8.37782 47.9072 8.22815 47.9072Z" fill="#111111"/>
<path d="M22.6108 55.0761C22.6108 54.7169 22.3563 54.4176 22.0121 54.3427C21.9672 54.3278 21.9223 54.3278 21.8625 54.3278C21.8026 54.3278 21.7427 54.3427 21.6978 54.3427C21.6529 54.3427 21.623 54.3577 21.5781 54.3727C21.5332 54.3876 21.4883 54.4176 21.4584 54.4325C21.4284 54.4625 21.3835 54.4774 21.3536 54.5074C21.3237 54.5373 21.2937 54.5822 21.2638 54.6271C21.2339 54.672 21.2189 54.7019 21.2039 54.7468C21.189 54.7768 21.174 54.8217 21.174 54.8516C21.159 54.9114 21.159 54.9713 21.159 55.0312C21.159 55.3904 21.4135 55.7047 21.7876 55.7645C22.057 55.8094 22.3414 55.8394 22.6257 55.8693C22.5958 55.6298 22.6108 55.3455 22.6108 55.0761Z" fill="#111111"/>
<path d="M21.1441 54.8965C21.1441 54.8665 21.159 54.8216 21.174 54.7917C21.159 54.8216 21.1441 54.8665 21.1441 54.8965Z" fill="#111111"/>
<path d="M21.174 54.7918C21.189 54.7469 21.204 54.717 21.2339 54.6721C21.2189 54.702 21.189 54.7469 21.174 54.7918Z" fill="#111111"/>
<path d="M21.3387 54.5373C21.3686 54.5074 21.3985 54.4924 21.4434 54.4625C21.4135 54.4774 21.3836 54.5074 21.3387 54.5373Z" fill="#111111"/>
<path d="M21.4434 54.4624C21.4733 54.4474 21.5182 54.4175 21.5631 54.4025C21.5332 54.4025 21.4883 54.4325 21.4434 54.4624Z" fill="#111111"/>
<path d="M21.5781 54.3877C21.6081 54.3727 21.653 54.3577 21.6979 54.3577C21.653 54.3577 21.6081 54.3727 21.5781 54.3877Z" fill="#111111"/>
<path d="M14.7235 8.6655C14.7235 13.4248 18.1208 17.3011 22.2964 17.3011H25.3346C23.6434 17.3011 22.0869 16.6725 20.8297 15.5949C18.1807 14.8167 16.2201 11.988 16.2201 8.65054C16.2201 5.29808 18.1807 2.48441 20.8297 1.70616C22.0719 0.658518 23.6135 0.0149663 25.2747 0H22.2964C18.1208 0.0299327 14.7235 3.90621 14.7235 8.6655Z" fill="#111111"/>
<path d="M27.7292 55.3156V55.9142C28.0136 55.8843 28.2979 55.8544 28.5823 55.8095C28.9116 55.7646 29.151 55.5101 29.1959 55.1809C29.1361 54.8367 28.8367 54.5673 28.4626 54.5673C28.0734 54.5673 27.7292 54.9115 27.7292 55.3156Z" fill="#111111"/>
<path d="M28.3728 54.3427C26.2925 54.642 24.0925 54.642 22.0121 54.3577C22.3564 54.4175 22.6108 54.7318 22.6108 55.091C22.6108 55.3604 22.6108 55.6448 22.5958 55.9291C23.4489 56.0189 24.317 56.0638 25.17 56.0638C26.0231 56.0638 26.8912 56.0189 27.7293 55.9291V55.3305C27.7293 54.9264 28.0585 54.5822 28.4776 54.5822C28.8368 54.5822 29.1511 54.8516 29.2109 55.1958C29.2259 55.121 29.2259 55.0461 29.2109 54.9713C29.1511 54.5522 28.7769 54.2679 28.3728 54.3427Z" fill="#111111"/>
<path d="M31.3511 24.0059V24.5298C31.5157 24.5747 31.6654 24.6345 31.83 24.6944C32.2042 24.8441 32.6382 24.6495 32.7879 24.2604C32.8178 24.1706 32.8328 24.0808 32.8328 23.991C32.8328 23.7964 32.7579 23.6168 32.6382 23.4821C32.6083 23.4672 32.5933 23.4372 32.5634 23.4073C32.5334 23.3923 32.5035 23.3624 32.4736 23.3474C32.4436 23.3325 32.4137 23.3175 32.3688 23.3025C32.3389 23.2876 32.294 23.2726 32.264 23.2726C32.2191 23.2576 32.1742 23.2576 32.1144 23.2576C31.6804 23.2576 31.3511 23.6019 31.3511 24.0059Z" fill="#111111"/>
<path d="M25.2748 0.0300293C23.5985 0.0449956 22.072 0.673581 20.8298 1.73619C21.3087 1.60149 21.8026 1.52666 22.2965 1.52666H25.3346C28.6871 1.52666 31.4259 4.72946 31.4259 8.68057C31.4259 12.6167 28.6871 15.8345 25.3346 15.8345H22.2965C21.7876 15.8345 21.2937 15.7596 20.8148 15.6249C22.072 16.6875 23.6285 17.3311 25.3197 17.3311C29.5102 17.3311 32.9076 13.4548 32.9076 8.69553C32.9076 3.93624 29.5252 0.0300293 25.3346 0.0300293C25.3197 0.0300293 25.3047 0.0300293 25.2748 0.0300293Z" fill="#111111"/>
<path d="M25.17 24.2454C22.4013 24.2454 19.6774 24.7992 17.2229 25.8618V26.9992C17.2229 27.4033 16.8937 27.7475 16.4746 27.7475C16.1154 27.7475 15.8161 27.4931 15.7413 27.1489C15.7413 27.2237 15.7712 27.2986 15.8011 27.3734C15.9358 27.6278 16.1902 27.7775 16.4596 27.7775C16.5794 27.7775 16.6841 27.7475 16.8039 27.7026C19.3182 26.4155 22.2067 25.7421 25.1551 25.7421C27.4748 25.7421 29.7198 26.1461 31.8151 26.9543C31.845 26.9693 31.8899 26.9843 31.9348 26.9843C31.5906 26.9244 31.3362 26.6251 31.3362 26.2509V25.2033C29.3756 24.5597 27.2953 24.2454 25.17 24.2454Z" fill="#111111"/>
<path d="M31.3511 26.2509C31.3511 26.6101 31.6055 26.9094 31.9498 26.9842C31.9946 26.9992 32.0395 26.9992 32.0994 26.9992C32.1443 26.9992 32.2042 26.9992 32.2491 26.9842C32.294 26.9842 32.3389 26.9692 32.3838 26.9393C32.4287 26.9243 32.4586 26.9094 32.5035 26.8795C32.6981 26.7448 32.8328 26.5203 32.8328 26.2658C32.8328 25.9665 32.6532 25.6821 32.3538 25.5774C32.0246 25.4576 31.6804 25.3379 31.3511 25.2332V26.2509Z" fill="#111111"/>
<path d="M32.0994 26.9993C32.0545 26.9993 31.9946 26.9993 31.9497 26.9843C32.0395 26.9993 32.1443 26.9993 32.249 26.9843C32.2041 26.9843 32.1592 26.9993 32.0994 26.9993Z" fill="#111111"/>
<path d="M25.17 22.0005C22.072 22.0005 19.0338 22.7039 16.3548 24.0209C16.3848 24.006 16.4297 24.006 16.4746 24.006C16.8787 24.006 17.2229 24.3352 17.2229 24.7543V25.2631C19.6474 24.1107 22.3863 23.4971 25.17 23.4971C27.3102 23.4971 29.4055 23.8413 31.3661 24.5448V24.0209C31.3661 23.6169 31.6953 23.2726 32.1144 23.2726C32.1593 23.2726 32.2191 23.2726 32.264 23.2876C30.0041 22.4345 27.6245 22.0005 25.17 22.0005Z" fill="#111111"/>
<path d="M32.3987 26.9393C32.3538 26.9543 32.3089 26.9693 32.264 26.9842C32.3089 26.9842 32.3538 26.9543 32.3987 26.9393Z" fill="#111111"/>
<path d="M32.3689 23.3175C32.3988 23.3325 32.4437 23.3474 32.4736 23.3624C32.4437 23.3325 32.3988 23.3175 32.3689 23.3175Z" fill="#111111"/>
<path d="M32.5184 26.8646C32.4735 26.8945 32.4436 26.9095 32.3987 26.9244C32.4436 26.9244 32.4885 26.8945 32.5184 26.8646Z" fill="#111111"/>
<path d="M32.4736 23.3624C32.5036 23.3774 32.5335 23.3924 32.5634 23.4223C32.5335 23.3924 32.5036 23.3774 32.4736 23.3624Z" fill="#111111"/>
<path d="M32.5634 23.4224C32.5933 23.4373 32.6232 23.4673 32.6382 23.4972C32.6232 23.4673 32.5933 23.4523 32.5634 23.4224Z" fill="#111111"/>
<path d="M31.3511 25.2032C31.6804 25.308 32.0246 25.4277 32.3538 25.5475C32.6532 25.6522 32.8328 25.9366 32.8328 26.2359V24.0059C32.8328 24.0957 32.8178 24.1855 32.7879 24.2753C32.6382 24.6644 32.2042 24.859 31.83 24.7093C31.6804 24.6495 31.5157 24.5896 31.3511 24.5447V25.2032Z" fill="#111111"/>
<path d="M35.7661 52.5617C35.392 53.759 35.0777 55.7047 34.8083 58.5034H29.2259V55.3155C29.2259 55.2706 29.2109 55.2257 29.2109 55.1958C29.166 55.5101 28.9265 55.7795 28.5973 55.8244C28.3129 55.8693 28.0286 55.8992 27.7442 55.9292V59.2666C27.7442 59.6707 28.0735 60 28.4925 60H35.4967C35.8859 60 36.2002 59.7156 36.2451 59.3265C36.4845 56.6026 36.7689 54.5972 37.0981 53.3849C37.0233 53.3998 36.9485 53.4298 36.8736 53.4597C36.7988 53.4896 36.724 53.5046 36.6342 53.5046C36.3199 53.5046 36.0355 53.31 35.9308 52.9958C35.826 52.6366 35.9757 52.2624 36.29 52.0978C36.0355 52.1427 35.841 52.3223 35.7661 52.5617Z" fill="#111111"/>
<path d="M37.0833 53.37C37.1132 53.2502 37.1431 53.1305 37.1731 53.0257C37.2928 52.6366 37.0833 52.2176 36.6941 52.0829C36.5594 52.038 36.4098 52.038 36.2751 52.0829C35.9608 52.2475 35.8111 52.6217 35.9159 52.9809C36.0206 53.2802 36.305 53.4897 36.6193 53.4897C36.6941 53.4897 36.769 53.4747 36.8588 53.4448C36.9336 53.4149 37.0084 53.3849 37.0833 53.37Z" fill="#111111"/>
<path d="M6.11789 32.1776C6.26755 32.3572 6.31245 32.5967 6.26755 32.8062L6.50701 32.881C8.81182 25.7421 16.31 20.5039 25.17 20.5039C30.0191 20.5039 34.6437 22.0903 38.2207 24.9489C38.4302 24.4849 38.6696 24.0359 38.9241 23.6169C35.1077 20.6386 30.2586 19.0222 25.17 19.0222C16.0855 19.0222 8.3329 24.1856 5.47433 31.3844L6.11789 32.1776Z" fill="#111111"/>
<path d="M38.924 23.6169C38.6696 24.036 38.4302 24.485 38.2206 24.9489C38.3254 25.0238 38.4302 25.1136 38.5349 25.2034C38.8492 25.4728 39.3132 25.4279 39.5826 25.1136C39.837 24.7993 39.8071 24.3353 39.4928 24.0659C39.2982 23.9013 39.1036 23.7516 38.924 23.6169Z" fill="#111111"/>
<path d="M38.4601 38.4933C38.4601 37.4756 39.0438 36.6225 39.7472 36.6225C40.4357 36.6225 41.0343 37.4756 41.0343 38.4933C41.0343 39.511 40.4507 40.3641 39.7472 40.3641C39.0438 40.3492 38.4601 39.511 38.4601 38.4933ZM36.9635 38.4933C36.9635 40.3492 38.2057 41.8458 39.7323 41.8458C41.2588 41.8458 42.501 40.3342 42.501 38.4933C42.501 36.6375 41.2588 35.1409 39.7323 35.1409C38.2057 35.1409 36.9635 36.6375 36.9635 38.4933Z" fill="#111111"/>
<path d="M43.384 30.5612C43.2044 30.9204 43.3391 31.3844 43.6983 31.564C43.8031 31.6238 43.9228 31.6538 44.0425 31.6538C44.3119 31.6538 44.5664 31.5041 44.701 31.2497C44.731 31.2048 44.7459 31.1449 44.7759 31.1C44.701 30.9354 44.6112 30.7558 44.5215 30.6061C44.3119 30.2619 43.848 30.1422 43.5037 30.3517C43.4588 30.4116 43.4139 30.4864 43.384 30.5612Z" fill="#111111"/>
<path d="M37.4423 27.2686C37.3675 27.6726 37.607 28.0618 38.0111 28.1516C38.4152 28.2414 38.8043 27.9869 38.8941 27.5828C39.7172 23.7365 42.8003 20.9079 45.5242 19.4112C45.6439 22.7188 45.4493 26.4604 43.4738 30.3366C43.818 30.1271 44.282 30.2469 44.4915 30.5911C44.5813 30.7407 44.6711 30.9203 44.7459 31.085C47.1405 26.4155 47.1405 21.9854 46.946 18.199C46.946 17.9595 46.8113 17.735 46.6017 17.6003C46.3922 17.4806 46.1378 17.4656 45.9133 17.5554C43.5486 18.6031 40.69 20.6983 38.909 23.6168C39.0886 23.7515 39.2832 23.9011 39.4628 24.0508C39.7771 24.3202 39.822 24.7841 39.5526 25.0984C39.2982 25.4127 38.8192 25.4576 38.505 25.1882C38.4002 25.1134 38.2954 25.0236 38.1907 24.9338C37.8764 25.6821 37.6219 26.4604 37.4423 27.2686Z" fill="#111111"/>
<path d="M36.6941 52.0829C37.0832 52.2026 37.3077 52.6216 37.173 53.0257C37.1431 53.1305 37.1131 53.2502 37.0832 53.37C38.3105 52.9659 39.6125 52.5019 40.9296 52.0529C44.0126 51.0053 47.2004 49.9127 49.2658 49.2692C49.4304 49.2243 49.5951 49.1046 49.6849 48.9399C49.7597 48.8052 51.5856 45.6174 50.8073 41.0527C50.7774 40.8432 50.6577 40.6636 50.4781 40.5438C50.2985 40.4391 50.0889 40.4091 49.8794 40.454L48.5175 40.8282C48.1882 40.918 47.859 41.0078 47.5596 41.0078C46.3623 41.0078 46.1229 39.556 45.8684 36.488C45.7188 34.677 45.5691 32.6416 44.8058 31.0851C44.7909 31.13 44.7609 31.1899 44.731 31.2348C44.5963 31.4892 44.3419 31.6389 44.0725 31.6389C43.9528 31.6389 43.833 31.6089 43.7283 31.5491C43.3691 31.3695 43.2344 30.9055 43.414 30.5463C43.4439 30.4715 43.4888 30.4116 43.5187 30.3368C43.1745 30.5463 43.0697 31.0103 43.2793 31.3545C44.0725 32.6566 44.2371 34.6621 44.3868 36.6077C44.6113 39.5111 44.8657 42.5044 47.5596 42.5044C47.5746 42.5044 47.5746 42.5044 47.5896 42.5044C48.0835 42.5044 48.5325 42.3847 48.9365 42.265L49.4753 42.1153C49.7597 45.0487 48.8767 47.2338 48.5474 47.9372C46.4671 48.5957 43.4289 49.6434 40.4806 50.6461C39.1037 51.125 37.7118 51.589 36.4247 52.038C36.3948 52.0529 36.3499 52.0679 36.3199 52.0829C36.4097 52.038 36.5594 52.038 36.6941 52.0829Z" fill="#111111"/>
</svg>
