<svg width="62" height="60" viewBox="0 0 62 60" fill="none" xmlns="http://www.w3.org/2000/svg">
<g clip-path="url(#clip0)">
<path d="M43.786 27.3579H34.9833V52.4014H43.786V27.3579Z" fill="#FF4A2F"/>
<path d="M16.2676 43.6924H7.46487V52.4014H16.2676V43.6924Z" fill="#FF4A2F"/>
<path d="M61.9264 57.0569V58.3947C61.9264 59.291 61.204 60.0134 60.3077 60.0134H1.61873C0.722408 60.0001 0 59.2776 0 58.3813V57.0435C0 56.1472 0.722408 55.4248 1.61873 55.4248H60.3077C61.204 55.4382 61.9264 56.1606 61.9264 57.0569ZM60.3077 58.3813L60.2943 57.0569H1.63211V58.3813H60.3077Z" fill="#111111"/>
<path d="M58.5418 1.99336C58.6622 2.24754 58.6354 2.56861 58.4482 2.79603L50.4883 13.592C50.3278 13.8061 50.0869 13.9265 49.8328 13.9265C49.7257 13.9265 49.6187 13.8997 49.5117 13.8596C49.1639 13.699 48.9632 13.3378 49.0301 12.9633L49.8729 8.2676L32.6555 15.8529L31.9465 24.1472C31.9063 24.5753 31.7458 24.99 31.505 25.3111C31.2508 25.6455 30.903 25.8997 30.5017 26.0469L7.73243 34.4348C7.49163 34.5285 7.22407 34.5686 6.96989 34.5686C6.04681 34.5686 5.204 33.9934 4.88293 33.1238C4.45484 31.9733 5.05685 30.689 6.19397 30.2609L27.6388 22.3813L28.3344 14.1807C28.4013 13.3646 28.9097 12.6556 29.6455 12.3211L48.0936 4.18734L44.0134 1.485C43.6923 1.28433 43.5719 0.882989 43.6923 0.535163C43.8261 0.173959 44.1739 -0.0400878 44.5485 4.59622e-05L57.8863 1.49837C58.1806 1.53851 58.4348 1.7258 58.5418 1.99336ZM51.2642 9.81944L56.3211 2.96995L47.7458 2.00674L50.2475 3.6656C50.5017 3.83951 50.6354 4.12045 50.6087 4.41476C50.5819 4.70908 50.3946 4.97663 50.1271 5.08366L30.3278 13.8194C30.1271 13.9131 29.9933 14.1004 29.9799 14.3144L29.2308 23.0368C29.204 23.3579 29.0033 23.6255 28.709 23.7325L6.76922 31.786C6.46153 31.9064 6.30099 32.2409 6.40802 32.5619C6.51504 32.8562 6.86287 33.0302 7.18394 32.9097L29.9532 24.5352C30.1672 24.4683 30.3144 24.2542 30.3411 24.0268L31.0903 15.2375C31.117 14.9432 31.291 14.689 31.5719 14.5686L50.6354 6.16727C50.9164 6.04687 51.2241 6.087 51.4649 6.27429C51.7057 6.46159 51.8127 6.7559 51.7592 7.05021L51.2642 9.81944Z" fill="#111111"/>
<path d="M58.582 16.6021V51.893C58.582 52.6154 57.9933 53.2041 57.2709 53.2041H47.8395C47.1171 53.2041 46.5284 52.6154 46.5284 51.893V16.6021C46.5284 15.893 47.1171 15.291 47.8395 15.291H49.8328H57.2709C57.9933 15.291 58.582 15.893 58.582 16.6021ZM56.9632 51.5853V16.9231H48.1606V51.5853H56.9632Z" fill="#111111"/>
<path d="M44.5084 26.2342V51.9064C44.5084 52.6288 43.9197 53.2175 43.1973 53.2175H33.7659C33.0435 53.2175 32.4549 52.6288 32.4549 51.9064V26.2342C32.4549 25.9666 32.5351 25.7125 32.6823 25.4984C32.9231 25.1506 33.3111 24.9232 33.7659 24.9232H43.1973C43.9197 24.9232 44.5084 25.5118 44.5084 26.2342ZM42.8763 51.5854V26.5553H34.0736V51.5987H42.8763V51.5854Z" fill="#111111"/>
<path d="M30.7023 34.2609V51.9064C30.7023 52.6288 30.1137 53.2174 29.3913 53.2174H19.9599C19.2375 53.2174 18.6488 52.6288 18.6488 51.9064V34.2609C18.6488 33.5385 19.2375 32.9499 19.9599 32.9499H29.3913C30.1003 32.9365 30.7023 33.5385 30.7023 34.2609ZM29.0702 51.5853V34.5686H20.2676V51.5987H29.0702V51.5853Z" fill="#111111"/>
<path d="M16.99 42.5686V51.9064C16.99 52.6288 16.4013 53.2174 15.6789 53.2174H6.2475C5.52509 53.2174 4.93646 52.6288 4.93646 51.9064V42.5686C4.93646 41.8462 5.52509 41.2576 6.2475 41.2576L15.6656 41.2442C16.0134 41.2442 16.3612 41.3914 16.602 41.6455C16.8428 41.8863 16.99 42.2208 16.99 42.5686ZM15.3579 51.5853V42.8763H6.55519V51.5853H15.3579Z" fill="#111111"/>
</g>
<defs>
<clipPath id="clip0">
<rect width="61.9264" height="60" fill="white"/>
</clipPath>
</defs>
</svg>
