<svg width="57" height="60" viewBox="0 0 57 60" fill="none" xmlns="http://www.w3.org/2000/svg">
<g clip-path="url(#clip0)">
<path d="M45.2061 22.3074L28.9033 32.6367L39.217 16.3183C41.5349 17.9206 43.5883 19.9584 45.2061 22.3074Z" fill="#063C83"/>
<path d="M25.4187 35.9502L39.637 54.2286C35.6547 57.091 31.0034 58.6155 26.1032 58.6155C13.316 58.6155 2.909 48.2084 2.909 35.4213C2.909 22.9297 12.8494 12.7093 25.232 12.2582V35.4213C25.232 35.4835 25.2476 35.5302 25.2476 35.5924C25.2632 35.6857 25.2943 35.7635 25.3409 35.8413C25.3565 35.8724 25.3876 35.9035 25.4187 35.9502C25.4187 35.9346 25.4187 35.9502 25.4187 35.9502Z" fill="#063C83"/>
<path d="M52.7042 22.5408C55.2398 26.5543 56.5621 31.1589 56.5621 35.8725C56.5465 43.6038 53.0153 50.7441 46.8862 55.5043C46.7462 55.6287 46.5439 55.691 46.3573 55.691C46.3262 55.691 46.295 55.691 46.2484 55.6754C46.015 55.6443 45.8128 55.5354 45.6728 55.3487L30.9567 36.3547C30.8167 36.168 30.7545 35.9191 30.7856 35.6702C30.8323 35.4369 30.9723 35.2191 31.1745 35.0946L51.5063 22.2764C51.9264 22.0275 52.4397 22.1519 52.7042 22.5408ZM54.8354 35.8725C54.8509 31.7812 53.762 27.7677 51.693 24.2209L32.9168 36.0591L46.4973 53.6064C51.7864 49.1885 54.8042 42.7794 54.8354 35.8725Z" fill="#111111"/>
<path d="M45.9684 21.7475C46.0928 21.9341 46.1395 22.1675 46.0773 22.4008C46.0306 22.6186 45.8906 22.8208 45.7039 22.9453L26.1965 35.2968L25.7921 34.7835V32.0767L30.2411 25.0609C30.3033 25.3876 30.5367 25.652 30.8634 25.7454C30.9411 25.7765 31.0189 25.7765 31.0967 25.7765C31.3923 25.7765 31.6723 25.6365 31.8278 25.372L38.7659 14.3894C41.6438 16.3028 44.1016 18.8385 45.9684 21.7475ZM27.721 32.279L44.0238 21.9497C42.406 19.6163 40.3682 17.5629 38.0192 15.9606L27.721 32.279Z" fill="#111111"/>
<path d="M44.3972 3.87348C44.8017 4.12238 44.9261 4.66684 44.6617 5.0713L38.7659 14.405C38.5792 14.2805 38.4081 14.1561 38.2214 14.0472C38.0347 13.9227 37.7858 13.8761 37.5681 13.9383C37.3503 13.985 37.148 14.125 37.0236 14.3116L30.2256 25.0609C30.21 25.0143 30.21 24.9676 30.21 24.9209V0.871143C30.21 0.388903 30.5989 0 31.0812 0C35.7947 0 40.3993 1.33783 44.3972 3.87348ZM31.9523 21.9341L42.7327 4.88463C39.4348 2.95567 35.748 1.88229 31.9523 1.74229V21.9341Z" fill="#111111"/>
<path d="M40.3526 53.5287C40.6482 53.902 40.5704 54.4465 40.2126 54.7421C35.7947 58.1955 30.5056 60.0001 24.9209 60.0001C11.1849 60.0001 0 48.8152 0 35.0791C0 21.3431 11.1849 10.1582 24.9209 10.1582C25.4032 10.1582 25.7921 10.5316 25.7921 11.0293V32.0768L24.1898 34.6124C24.0965 34.7524 24.0653 34.908 24.0653 35.0791V11.9005C11.6671 12.3516 1.72673 22.572 1.72673 35.0791C1.72673 47.8663 12.1338 58.2733 24.9209 58.2733C29.8211 58.2733 34.4724 56.7644 38.4548 53.8865L24.2365 35.608C24.2676 35.6391 24.2831 35.6547 24.2987 35.6858C24.4698 35.8569 24.6876 35.9347 24.9209 35.9347C25.0765 35.9347 25.2476 35.888 25.3876 35.8103L26.1965 35.2969L40.3526 53.5287Z" fill="#111111"/>
<path d="M38.7659 14.3894L31.8278 25.372C31.6567 25.6209 31.3923 25.7765 31.0967 25.7765C31.0189 25.7765 30.9411 25.7609 30.8634 25.7454C30.5367 25.652 30.3033 25.3876 30.2411 25.0609C30.2411 25.0453 30.2411 25.0453 30.2411 25.0453L37.0391 14.296C37.1636 14.0938 37.3658 13.9694 37.5836 13.9227C37.8014 13.876 38.0503 13.9071 38.237 14.0316C38.4081 14.1405 38.5948 14.2649 38.7659 14.3894Z" fill="#111111"/>
<path d="M25.7921 34.7835L26.1965 35.2968L25.3876 35.8102C25.2476 35.9035 25.092 35.9346 24.9209 35.9346C24.7031 35.9346 24.4853 35.8413 24.2987 35.6857C24.2676 35.6546 24.252 35.6391 24.2364 35.608C24.2364 35.608 24.2364 35.5924 24.2209 35.5924C24.1898 35.5613 24.1742 35.5146 24.1587 35.4835C24.112 35.4057 24.0964 35.3124 24.0653 35.2346C24.0498 35.1879 24.0498 35.1257 24.0498 35.0635C24.0498 34.9079 24.0964 34.7368 24.1742 34.5968L25.7765 32.0612V34.7835H25.7921Z" fill="#111111"/>
<path d="M24.1587 35.4835C24.1742 35.5146 24.2053 35.5613 24.2209 35.5924C24.2053 35.5613 24.1742 35.5302 24.1587 35.4835Z" fill="#111111"/>
<path d="M24.0653 35.0791C24.0653 35.1258 24.0809 35.188 24.0809 35.2502C24.0653 35.188 24.0653 35.1413 24.0653 35.0791Z" fill="#111111"/>
</g>
<defs>
<clipPath id="clip0">
<rect width="56.5621" height="60" fill="white"/>
</clipPath>
</defs>
</svg>
