<svg width="62" height="50" viewBox="0 0 62 50" fill="none" xmlns="http://www.w3.org/2000/svg">
<g clip-path="url(#clip0)">
<path d="M40.2325 2.31421V4.18296H39.9935H23.2833H23.1095V2.31421H40.2325Z" fill="#9B51E0"/>
<path d="M60.4846 28.0204V49.0548H2.39026V28.0204L10.289 29.3134V35.0065C10.289 35.4629 10.6584 35.8214 11.1039 35.8214H14.5697C15.0152 35.8214 15.3846 35.4629 15.3846 35.0065V30.1391L31.3016 32.7467C31.3451 32.7575 31.3885 32.7575 31.432 32.7575C31.4754 32.7575 31.508 32.7575 31.5624 32.7467L47.4685 30.1391V35.0065C47.4685 35.4629 47.8379 35.8214 48.2833 35.8214H51.7492C52.2056 35.8214 52.5641 35.4629 52.5641 35.0065V29.3134L60.4846 28.0204Z" fill="#9B51E0"/>
<path d="M59.7132 25.6845V27.336L51.8036 28.6397V26.9774L59.7132 25.6845Z" fill="#111111"/>
<path d="M60.6584 27.1838L59.7131 27.3359V25.6845V8.72445H39.2329C39.6784 8.72445 40.0478 8.35505 40.0478 7.90959V7.09473H60.528C60.9735 7.09473 61.3429 7.45327 61.3429 7.90959V26.369C61.3429 26.7818 61.0495 27.1186 60.6584 27.1838Z" fill="#111111"/>
<path d="M51.8036 26.9774V28.6397L50.1738 28.9005V27.249L51.8036 26.9774Z" fill="#111111"/>
<path d="M50.1738 27.249V28.9005L48.3485 29.2047V27.5532L50.1738 27.249Z" fill="#111111"/>
<path d="M48.3485 27.5532V29.2047L46.7188 29.4654V27.814L48.3485 27.5532Z" fill="#111111"/>
<path d="M46.7188 27.814V23.5224C46.7188 23.0769 47.0882 22.7075 47.5337 22.7075H50.9996C51.4559 22.7075 51.8144 23.0769 51.8144 23.5224V26.9883L50.1847 27.2599V24.3372H48.3485V27.5532L46.7188 27.814Z" fill="#111111"/>
<path d="M46.7188 34.3329V29.4654L48.3485 29.2047V33.518H50.1847V28.9005L51.8144 28.6288V34.322C51.8144 34.7783 51.4559 35.1369 50.9996 35.1369H47.5337C47.0774 35.1477 46.7188 34.7892 46.7188 34.3329Z" fill="#111111"/>
<path d="M40.0478 7.09473V7.90959C40.0478 8.35505 39.6784 8.72445 39.233 8.72445C38.7875 8.72445 38.4181 8.35505 38.4181 7.90959V7.09473H40.0478Z" fill="#111111"/>
<path d="M40.0478 5.12817H38.4181V7.10558H40.0478V5.12817Z" fill="#111111"/>
<path d="M40.0478 4.31334V5.1282H38.4181V4.31334C38.4181 3.86788 38.7875 3.49847 39.233 3.49847C39.6784 3.49847 40.0478 3.86788 40.0478 4.31334Z" fill="#111111"/>
<path d="M22.5228 3.49847H39.233C38.7875 3.49847 38.4181 3.86788 38.4181 4.31334V5.1282H23.3377V4.31334C23.3377 3.86788 22.9683 3.49847 22.5228 3.49847Z" fill="#111111"/>
<path d="M39.233 8.72445H22.5228C22.9683 8.72445 23.3377 8.35505 23.3377 7.90959V7.09473H38.4181V7.90959C38.4181 8.36591 38.7875 8.72445 39.233 8.72445Z" fill="#111111"/>
<path d="M30.6715 32.0838C30.6171 32.0838 30.5845 32.0838 30.5411 32.073L14.6241 29.4654V27.814L30.6715 30.4433L46.7188 27.814V29.4654L30.8127 32.073C30.7584 32.0838 30.7149 32.0838 30.6715 32.0838Z" fill="#111111"/>
<path d="M23.3377 7.09473V7.90959C23.3377 8.35505 22.9683 8.72445 22.5228 8.72445C22.0774 8.72445 21.7079 8.35505 21.7079 7.90959V7.09473H23.3377Z" fill="#111111"/>
<path d="M23.3377 5.12817H21.7079V7.10558H23.3377V5.12817Z" fill="#111111"/>
<path d="M23.3377 4.31334V5.1282H21.7079V4.31334C21.7079 3.86788 22.0774 3.49847 22.5228 3.49847C22.9683 3.49847 23.3377 3.86788 23.3377 4.31334Z" fill="#111111"/>
<path d="M41.1017 0.814863V4.31334C41.1017 4.7588 40.7431 5.1282 40.2868 5.1282H40.0478V4.31334C40.0478 3.86788 39.6784 3.49848 39.2329 3.49848H39.472V1.62973H22.349V3.49848H22.5228C22.0773 3.49848 21.7079 3.86788 21.7079 4.31334V5.1282H21.5341C21.0886 5.1282 20.7192 4.7588 20.7192 4.31334V0.814863C20.7192 0.35854 21.0886 0 21.5341 0H40.2868C40.7431 0 41.1017 0.35854 41.1017 0.814863Z" fill="#111111"/>
<path d="M14.624 27.814V29.4654L12.9943 29.1938V27.5424L14.624 27.814Z" fill="#111111"/>
<path d="M12.9944 27.5424V29.1938L11.1582 28.9005V27.249L12.9944 27.5424Z" fill="#111111"/>
<path d="M11.1582 27.249V28.9005L9.52844 28.6397V26.9774L11.1582 27.249Z" fill="#111111"/>
<path d="M9.52844 23.5115C9.52844 23.0661 9.89785 22.6967 10.3433 22.6967H13.8092C14.2546 22.6967 14.6241 23.0661 14.6241 23.5115V27.8031L12.9943 27.5315V24.3155H11.1582V27.2382L9.52844 26.9665V23.5115Z" fill="#111111"/>
<path d="M9.52844 34.3329V28.6397L11.1582 28.9005V33.518H12.9943V29.1938L14.6241 29.4654V34.3329C14.6241 34.7892 14.2546 35.1477 13.8092 35.1477H10.3433C9.89785 35.1477 9.52844 34.7892 9.52844 34.3329Z" fill="#111111"/>
<path d="M9.52844 26.9774V28.6397L1.6297 27.336V25.6845L9.52844 26.9774Z" fill="#111111"/>
<path d="M0 26.3798V7.90959C0 7.45327 0.369405 7.09473 0.814863 7.09473H21.708V7.90959C21.708 8.35505 22.0774 8.72445 22.5228 8.72445H1.62973V25.6736V27.3251L0.684485 27.173C0.282486 27.1186 0 26.7818 0 26.3798Z" fill="#111111"/>
<path d="M59.7132 48.3703V27.3359L60.6584 27.1838C61.0495 27.1186 61.3429 26.771 61.3429 26.3798V49.1851C61.3429 49.6306 60.9735 50 60.528 50H0.814863C0.369405 50 0 49.6306 0 49.1851V26.3798C0 26.7818 0.282486 27.1186 0.684485 27.1838L1.62973 27.3359V48.3703H59.7132Z" fill="#111111"/>
</g>
<defs>
<clipPath id="clip0">
<rect width="61.3429" height="50" fill="white"/>
</clipPath>
</defs>
</svg>
