<svg width="64" height="60" viewBox="0 0 64 60" fill="none" xmlns="http://www.w3.org/2000/svg">
<path d="M58.2437 40.5786L48.3799 53.3016C48.1348 53.6079 47.7672 53.8121 47.3383 53.853H47.2362C46.8482 53.853 46.501 53.71 46.2355 53.465L38.4752 46.1947C38.3935 45.7046 38.373 45.2553 38.373 44.8469C38.373 44.03 38.4752 43.1927 38.6794 42.3758L46.3172 49.5439C46.501 49.7277 46.7461 49.8094 47.0116 49.789C47.2771 49.7686 47.5017 49.646 47.6651 49.4418L56.5283 37.985C57.243 38.7611 57.8148 39.6188 58.2437 40.5786Z" fill="#44D5F9"/>
<path d="M55.3029 5.63647H46.4398V7.45404C46.4398 9.86384 44.4792 11.8448 42.049 11.8448C39.6188 11.8448 37.6583 9.86384 37.6583 7.45404V5.63647H21.9946V7.45404C21.9946 9.86384 20.034 11.8448 17.6038 11.8448C15.1736 11.8448 13.2131 9.86384 13.2131 7.45404V5.63647H4.37031C3.51259 5.63647 2.81824 6.33082 2.81824 7.18855V50.6671C2.81824 51.5248 3.51259 52.2396 4.37031 52.2396H29.9592C29.7754 51.7699 29.5916 51.2798 29.4486 50.7692H5.82028C5.30973 50.7692 4.90129 50.3608 4.90129 49.8502V14.0708C4.90129 13.5602 5.30973 13.1518 5.82028 13.1518H17.6447H42.0694H53.8734C54.3839 13.1518 54.7924 13.5602 54.7924 14.0708V25.3438C55.5071 25.5684 56.2219 25.8135 56.8959 26.1198V7.18855C56.8754 6.33082 56.1607 5.63647 55.3029 5.63647Z" fill="#44D5F9"/>
<path d="M42.6412 1.55208V5.94282C42.6412 6.80054 41.9469 7.49489 41.0892 7.49489C40.2314 7.49489 39.5371 6.80054 39.5371 5.94282V1.55208C39.5575 0.69435 40.2314 0 41.0892 0C41.9469 0 42.6412 0.69435 42.6412 1.55208Z" fill="#111111"/>
<path d="M47.6855 23.5466V17.9306H42.0695V23.5466H47.6855ZM48.6045 25.3846H41.1505C40.6399 25.3846 40.2315 24.9762 40.2315 24.4656V17.0116C40.2315 16.501 40.6399 16.0926 41.1505 16.0926H48.6045C49.1151 16.0926 49.5235 16.501 49.5235 17.0116V24.4656C49.5235 24.9762 49.1151 25.3846 48.6045 25.3846Z" fill="#111111"/>
<path d="M37.74 41.8448C37.5357 42.6617 37.4336 43.4786 37.4336 44.3159C37.4336 44.7243 37.4541 45.1736 37.5357 45.6637L45.2961 52.934C45.5616 53.179 45.9292 53.322 46.2968 53.322H46.3989C46.8074 53.2812 47.1954 53.0769 47.4404 52.7706L57.3043 40.0477C56.8754 39.0878 56.3036 38.2301 55.6093 37.4541L46.7461 48.9108C46.5827 49.1151 46.3581 49.2376 46.0926 49.258C45.8271 49.2784 45.582 49.1967 45.3982 49.0129L37.74 41.8448ZM59.1831 39.8434C59.3057 40.1498 59.2648 40.4969 59.0606 40.742L48.87 53.8938C48.2982 54.629 47.4404 55.0987 46.5215 55.16H46.2764C45.4187 55.16 44.6222 54.8536 44.0095 54.2614L36.0041 46.7665C35.8611 46.6236 35.759 46.4398 35.7182 46.2355C35.6365 45.6841 35.5752 45.194 35.5548 44.7447C35.5548 44.5814 35.5548 44.4384 35.5548 44.2954C35.5548 42.7638 35.8407 41.273 36.4125 39.823C36.5146 39.5371 36.7801 39.3329 37.066 39.2512C37.3724 39.1899 37.6787 39.2716 37.9033 39.4758L45.8679 46.9299L54.772 35.4323C54.9353 35.228 55.16 35.1055 55.4255 35.0851C55.691 35.0647 55.936 35.1464 56.1198 35.3302C57.4881 36.6167 58.5296 38.128 59.1831 39.8434Z" fill="#111111"/>
<path d="M47.8489 28.4275C56.5487 28.4275 63.6352 35.5139 63.6352 44.2137C63.6352 52.9135 56.5691 60 47.8489 60C39.1491 60 32.0627 52.9135 32.0627 44.2137C32.0627 35.5139 39.1695 28.4275 47.8489 28.4275ZM61.6746 44.2342C61.6746 42.5596 61.3887 40.9666 60.8373 39.4758C58.8972 34.1865 53.8121 30.4084 47.8489 30.4084C40.2315 30.4084 34.0232 36.5963 34.0232 44.2342C34.0232 44.418 34.0232 44.6222 34.0436 44.806C34.3295 52.1579 40.4153 58.0599 47.8489 58.0599C55.4868 58.0395 61.6746 51.8516 61.6746 44.2342Z" fill="#111111"/>
<path d="M36.9027 23.5466V17.9306H31.2866V23.5466H36.9027ZM38.7406 17.0116V24.4656C38.7406 24.9762 38.3322 25.3846 37.8217 25.3846H30.3676C29.857 25.3846 29.4486 24.9762 29.4486 24.4656V17.0116C29.4486 16.501 29.857 16.0926 30.3676 16.0926H37.8217C38.3322 16.0926 38.7406 16.501 38.7406 17.0116Z" fill="#111111"/>
<path d="M31.2866 32.0218C32.1851 30.7964 33.2267 29.7141 34.3907 28.7338H31.2866V32.0218ZM30.3676 26.8958H37.2906C37.6991 26.8958 38.0667 27.1817 38.1892 27.5697C38.2913 27.9578 38.1279 28.3866 37.7808 28.6113C34.9625 30.3063 32.6753 32.7365 31.2049 35.6773C31.0415 35.9836 30.7352 36.1878 30.388 36.1878C30.3063 36.1878 30.245 36.1878 30.1838 36.1674C29.7753 36.0653 29.469 35.6977 29.469 35.2689V27.8148C29.4486 27.3247 29.857 26.8958 30.3676 26.8958Z" fill="#111111"/>
<path d="M25.7318 23.5466V17.9306H20.1157V23.5466H25.7318ZM18.2573 24.4656V17.0116C18.2573 16.501 18.6658 16.0926 19.1763 16.0926H26.6304C27.1409 16.0926 27.5494 16.501 27.5494 17.0116V24.4656C27.5494 24.9762 27.1409 25.3846 26.6304 25.3846H19.1763C18.6862 25.3846 18.2573 24.9762 18.2573 24.4656Z" fill="#111111"/>
<path d="M25.7318 34.3499V28.7338H20.1157V34.3499H25.7318ZM18.2573 35.2689V27.8148C18.2573 27.3043 18.6658 26.8958 19.1763 26.8958H26.6304C27.1409 26.8958 27.5494 27.3043 27.5494 27.8148V35.2689C27.5494 35.7794 27.1409 36.1878 26.6304 36.1878H19.1763C18.6862 36.2083 18.2573 35.7794 18.2573 35.2689Z" fill="#111111"/>
<path d="M25.7318 45.2144V39.5984H20.1157V45.2144H25.7318ZM26.6508 47.0524H19.1763C18.6658 47.0524 18.2573 46.644 18.2573 46.1334V38.6794C18.2573 38.1688 18.6658 37.7604 19.1763 37.7604H26.6304C27.1409 37.7604 27.5494 38.1688 27.5494 38.6794V46.1334C27.5698 46.644 27.1613 47.0524 26.6508 47.0524Z" fill="#111111"/>
<path d="M18.0531 1.55208V5.94282C18.0531 6.80054 17.3587 7.49489 16.501 7.49489C15.6433 7.49489 14.9489 6.80054 14.9489 5.94282V1.55208C14.9489 0.69435 15.6433 0 16.501 0C17.3587 0 18.0531 0.69435 18.0531 1.55208Z" fill="#111111"/>
<path d="M14.949 34.3499V28.7339H9.33289V34.3499H14.949ZM16.7869 27.8353V35.2893C16.7869 35.7999 16.3785 36.2083 15.8679 36.2083H8.4139C7.90334 36.2083 7.4949 35.7999 7.4949 35.2893V27.8353C7.4949 27.3247 7.90334 26.9163 8.4139 26.9163H15.8679C16.3785 26.8959 16.7869 27.3247 16.7869 27.8353Z" fill="#111111"/>
<path d="M14.949 45.2144V39.5984H9.33289V45.2144H14.949ZM16.7869 38.6794V46.1334C16.7869 46.644 16.3785 47.0524 15.8679 47.0524H8.4139C7.90334 47.0524 7.4949 46.644 7.4949 46.1334V38.6794C7.4949 38.1688 7.90334 37.7604 8.4139 37.7604H15.8679C16.3785 37.7604 16.7869 38.1688 16.7869 38.6794Z" fill="#111111"/>
<path d="M21.0551 6.90268C21.0551 9.31248 19.0946 11.2934 16.6644 11.2934C14.2342 11.2934 12.2737 9.31248 12.2737 6.90268V5.08512H3.41048C2.55276 5.08512 1.85841 5.77947 1.85841 6.63719V50.1157C1.85841 50.9735 2.55276 51.6882 3.41048 51.6882H28.9993C28.8155 51.2185 28.6317 50.7284 28.4888 50.2179H4.86045C4.3499 50.2179 3.94146 49.8094 3.94146 49.2989V13.5398C3.94146 13.0293 4.3499 12.6209 4.86045 12.6209H16.6848H41.1096H52.9135C53.4241 12.6209 53.8325 13.0293 53.8325 13.5398V24.8128C54.5473 25.0375 55.2621 25.2825 55.936 25.5889V6.65761C55.936 5.79989 55.2417 5.10554 54.3839 5.10554H45.5208V6.9231C45.5208 9.3329 43.5602 11.3138 41.13 11.3138C38.6998 11.3138 36.7393 9.3329 36.7393 6.9231V5.08512H21.0756V6.90268H21.0551ZM16.6644 9.45544C18.0735 9.45544 19.1967 8.3118 19.1967 6.90268V4.16612C19.1967 3.65557 19.6052 3.24713 20.1157 3.24713H37.6174C38.128 3.24713 38.5364 3.65557 38.5364 4.16612V6.90268C38.5364 8.3118 39.6801 9.45544 41.0892 9.45544C42.4983 9.45544 43.6419 8.3118 43.6419 6.90268V4.16612C43.6419 3.65557 44.0504 3.24713 44.5609 3.24713H54.3431C56.2219 3.24713 57.7536 4.77879 57.7536 6.65761V27.0592C57.7536 27.386 57.5902 27.6923 57.3043 27.8557C57.0184 28.0191 56.6916 28.0395 56.4057 27.8761C55.2212 27.2635 53.9551 26.7529 52.6481 26.4057C52.26 26.3036 51.9741 25.936 51.9741 25.5276V14.4588H26.6508H5.77944V48.3799H26.6508H29.1627C29.5711 48.3799 29.9387 48.6658 30.0408 49.0538C30.3472 50.1566 30.7352 51.2185 31.2049 52.1988C31.3479 52.4847 31.3274 52.8319 31.1641 53.0974C31.0007 53.3629 30.6943 53.5262 30.388 53.5262H3.41048C1.53165 53.5467 0 52.015 0 50.1362V6.65761C0 4.77879 1.53165 3.24713 3.41048 3.24713H13.2131C13.7236 3.24713 14.1321 3.65557 14.1321 4.16612V6.90268C14.1116 8.3118 15.2553 9.45544 16.6644 9.45544Z" fill="#111111"/>
</svg>
