<svg width="62" height="55" viewBox="0 0 62 55" fill="none" xmlns="http://www.w3.org/2000/svg">
<g clip-path="url(#clip0)">
<path d="M49.3201 54.0339H5.29679C4.14749 54.0339 3.18141 52.5181 3.18141 50.7525V2.64836L36.6445 2.61505L36.0448 13.9748L48.2041 12.4091V50.8358C48.2374 52.0351 48.6205 53.1178 49.3201 54.0339ZM43.3238 46.3219V43.7734H7.91187V46.3219H43.3238ZM43.3238 40.059V37.5106H7.91187V40.059H43.3238ZM43.3238 33.7962V31.2477H7.91187V33.7962H43.3238ZM43.3238 27.5333V24.9848H7.91187V27.5333H43.3238ZM43.3238 21.2704V18.722H7.91187V21.2704H43.3238Z" fill="#27AE60"/>
<path d="M61.2795 49.5533V49.7365C61.1629 52.6514 58.6145 55 55.4997 55H52.2184H4.38068C1.93216 55 0 52.5681 0 49.47V0.0333131L35.212 0L48.7371 11.6096V20.1545H56.166H56.9988H57.815C59.7305 20.1545 61.2795 21.97 61.2795 24.202V26.9503V49.5533ZM59.6972 49.5533V26.9337V24.1853C59.6972 23.2692 59.1142 22.4531 58.4646 22.4531H56.7156C56.0494 22.4531 55.483 23.2692 55.483 24.1853V38.1602V39.4095V40.6754H48.7704V49.5533C48.7704 51.2856 50.4361 52.6847 52.4849 52.6847H55.9994C58.0315 52.6847 59.6972 51.2856 59.6972 49.5533ZM54.0672 22.3864H48.7371V39.2262H53.7341V24.0354C53.7341 23.4525 53.8507 22.9028 54.0672 22.3864ZM3.94761 53.2178H47.9709C47.288 52.3016 46.8883 51.2023 46.8883 50.0197V11.5763L34.729 13.142L35.3286 1.78225L1.84888 1.81557V49.9197C1.84888 51.702 2.81496 53.2178 3.94761 53.2178ZM36.7944 11.1099L44.0233 10.1772L37.1442 4.34737L36.7944 11.1099Z" fill="#111111"/>
<path d="M41.9746 42.9573H6.56269V45.5057H41.9746V42.9573Z" fill="#111111"/>
<path d="M41.9746 36.6945H6.56269V39.2429H41.9746V36.6945Z" fill="#111111"/>
<path d="M41.9746 30.4316H6.56269V32.98H41.9746V30.4316Z" fill="#111111"/>
<path d="M41.9746 24.1687H6.56269V26.7172H41.9746V24.1687Z" fill="#111111"/>
<path d="M41.9746 17.9058H6.56269V20.4543H41.9746V17.9058Z" fill="#111111"/>
</g>
<defs>
<clipPath id="clip0">
<rect width="61.2795" height="55" fill="white"/>
</clipPath>
</defs>
</svg>
